<?xml version="1.0" encoding="UTF-8" standalone="no"?>
<!-- Created with Inkscape (http://www.inkscape.org/) -->

<svg
   xmlns:dc="http://purl.org/dc/elements/1.1/"
   xmlns:cc="http://creativecommons.org/ns#"
   xmlns:rdf="http://www.w3.org/1999/02/22-rdf-syntax-ns#"
   xmlns:svg="http://www.w3.org/2000/svg"
   xmlns="http://www.w3.org/2000/svg"
   xmlns:sodipodi="http://sodipodi.sourceforge.net/DTD/sodipodi-0.dtd"
   xmlns:inkscape="http://www.inkscape.org/namespaces/inkscape"
   width="200"
   height="200"
   viewBox="0 0 200 200"
   id="svg2"
   version="1.1"
   inkscape:version="0.91 r"
   sodipodi:docname="example_spirale_2.svg">
  <defs
     id="defs4" />
  <sodipodi:namedview
     id="base"
     pagecolor="#ffffff"
     bordercolor="#666666"
     borderopacity="1.0"
     inkscape:pageopacity="0.0"
     inkscape:pageshadow="2"
     inkscape:zoom="2.8"
     inkscape:cx="138.91951"
     inkscape:cy="53.70314"
     inkscape:document-units="px"
     inkscape:current-layer="layer1"
     showgrid="false"
     units="px"
     inkscape:window-width="1916"
     inkscape:window-height="1143"
     inkscape:window-x="1680"
     inkscape:window-y="36"
     inkscape:window-maximized="0" />
  <metadata
     id="metadata7">
    <rdf:RDF>
      <cc:Work
         rdf:about="">
        <dc:format>image/svg+xml</dc:format>
        <dc:type
           rdf:resource="http://purl.org/dc/dcmitype/StillImage" />
        <dc:title></dc:title>
      </cc:Work>
    </rdf:RDF>
  </metadata>
  <g
     inkscape:label="Layer 1"
     inkscape:groupmode="layer"
     id="layer1"
     transform="translate(0,-852.3622)">
    <path
       style="color:#000000;font-style:normal;font-variant:normal;font-weight:normal;font-stretch:normal;font-size:medium;line-height:normal;font-family:sans-serif;text-indent:0;text-align:start;text-decoration:none;text-decoration-line:none;text-decoration-style:solid;text-decoration-color:#000000;letter-spacing:normal;word-spacing:normal;text-transform:none;direction:ltr;block-progression:tb;writing-mode:lr-tb;baseline-shift:baseline;text-anchor:start;white-space:normal;clip-rule:nonzero;display:inline;overflow:visible;visibility:visible;opacity:1;isolation:auto;mix-blend-mode:normal;color-interpolation:sRGB;color-interpolation-filters:linearRGB;solid-color:#000000;solid-opacity:1;fill:#000000;fill-opacity:1;fill-rule:evenodd;stroke:none;stroke-width:8;stroke-linecap:butt;stroke-linejoin:miter;stroke-miterlimit:4;stroke-dasharray:none;stroke-dashoffset:0;stroke-opacity:1;color-rendering:auto;image-rendering:auto;shape-rendering:auto;text-rendering:auto;enable-background:accumulate"
       d="m 111.54297,1012.2285 c 31.03695,-10.1065 49.73771,-44.15213 39.31641,-75.64061 -9.41889,-28.4596 -40.75158,-45.5894 -69.667974,-35.83398 -62.972906,25.86309 -24.073277,108.33289 25.390624,92.55273 20.72082,-7.35793 33.14411,-30.58181 25.3457,-51.78125 -6.67212,-18.13771 -27.20759,-28.9973 -45.83398,-21.82617 -15.551782,5.98741 -24.852297,23.85216 -18.283203,39.9043 5.304526,12.96205 20.527224,20.7107 34.001953,14.69921 10.36761,-4.62529 16.58188,-17.26298 11.03906,-28.15039 -1.97817,-3.88558 -5.3541,-6.87126 -9.375,-8.39453 -4.0209,-1.52327 -8.914407,-1.45273 -13.042966,1.19336 -2.612838,1.67463 -4.487029,4.21509 -5.335938,7.27539 -0.848908,3.06031 -0.284494,7.1055 2.59961,9.75 2.087452,1.91403 3.852549,2.12663 6.205078,1.90235 1.176264,-0.11214 2.683453,-0.46803 3.955078,-1.88282 1.271625,-1.41478 1.551801,-3.68931 1.128906,-5.26757 l -7.728516,2.07031 1.548829,-4.4336 c 0.269157,-0.9703 1.20989,-2.20763 1.943359,-2.67773 1.857198,-1.19032 3.811069,-1.23777 5.89258,-0.44922 2.08151,0.78856 4.06213,2.54349 5.08008,4.54297 3.251,6.38574 -0.66543,14.313 -7.169926,17.21484 -9.013153,4.02104 -19.643649,-1.39468 -23.33789,-10.42187 -4.754936,-11.61909 2.188561,-24.95827 13.751953,-29.41016 14.213713,-5.47225 30.263113,3.01438 35.453123,17.12305 6.1807,16.8018 -3.85552,35.56449 -20.51562,41.48047 -57.056591,10.73679 -58.436764,-63.20407 -20.156253,-77.43164 24.546443,-8.28115 51.461523,6.42978 59.515623,30.76562 8.97701,27.12446 -7.29852,56.76054 -34.19726,65.51954 -23.092166,-3.3058 -60.526905,25.9157 2.47656,7.6074 z"
       id="path4253"
       inkscape:connector-curvature="0"
       sodipodi:nodetypes="csccssssssssssscccsssssssccscc" />
  </g>
</svg>
