<svg xmlns="http://www.w3.org/2000/svg" width="48" height="48" enable-background="new"><defs><linearGradient x1="11.69" y1="14.09" x2="53.634" y2="51.234" gradientUnits="userSpaceOnUse" id="b"><stop offset="0" stop-opacity=".63"/><stop offset="1" stop-opacity="0"/></linearGradient><filter id="a" x="-.036" width="1.072" y="-.036" height="1.072" color-interpolation-filters="sRGB"><feGaussianBlur stdDeviation=".63"/></filter></defs><g fill="none" fill-rule="none" stroke-width="none" stroke-miterlimit="none" font-family="none" font-weight="none" font-size="none" text-anchor="none" style="mix-blend-mode:normal"><circle style="mix-blend-mode:normal" cx="24" cy="25" r="21" fill="#000" fill-opacity=".392" fill-rule="nonzero" filter="url(#a)"/><circle cx="24" cy="24" r="21" fill="#8bc34a" fill-rule="nonzero"/><path d="M19.08 15.57c-.895.073-1.858.033-2.804-.064-1.725-.176-3.4-.538-4.533-.738-.107 1.294-.06 2.36.204 3.466l.576.575c-.09.13-.177.28-.26.45l1.466 1.46-1.47-1.47-.01.01c.31.89.77 1.85 1.4 3.01l3.79 3.79c-.62.16-1.19.193-1.51.08-.44-.154-1.42-1.046-1.42-1.046l4.4 4.4-4.4-4.394c.15 2.3 1.05 4.434 2.37 5.75l.01.01-.01-.006L30.12 44.09c3.466-1.053 6.55-2.98 9-5.52l-5.77-5.77 5.77 5.77c.64-.663 1.236-1.37 1.785-2.11l-.84-.84.84.84c2.233-3.024 3.674-6.67 4.017-10.63L34.09 15.003c-2.74-.078-5.167.078-7.62.88-2.558-.286-6.884-1.792-6.884-1.792l-.505 1.48z" fill="url(#b)" fill-rule="nonzero"/><path d="M19.586 14.09l-.505 1.48c-.89.073-1.85.033-2.8-.064-1.72-.176-3.4-.538-4.53-.738-.1 1.294-.06 2.36.21 3.466.3-.385.65-.828 1.09-1.346.04.012 1.09.24 1.76.343-.96.37-1.86.69-2.53 2.04l-.004.01c.313.89.77 1.85 1.4 3.01.066-1.61-.132-2.24 1.113-2.22 1.757.03 5.16 1.8 5.215 3.75.047 1.72-3.08 2.68-4.045 2.35-.436-.15-1.416-1.04-1.416-1.04.17 2.63 1.323 5.04 2.956 6.26-.03-.54-.03-1.13.256-1.62 0 0 .645 1.037 1.653 1.11-.545-.93-.84-1.42.152-1.96 1.04-.57 4.548-2.943 5.427 2.946 0 0 1.11-.697 1.522-1.756.75 1.447 1.37 3.823 1.37 3.823s1.622-2.1 1.132-4.965c0 0 1.81 1.166 4.084 3.62-.054-2.3-.157-3.41-.83-4.75 2.128-.16 3.797-2.016 3.797-2.016s-2.197-.18-2.3-1.97c1.446-1.91 2.557-1.885 2.557-1.885s-1.47-1.19-3.72-1.24c.716-.56 1.094-.895 1.493-1.466-.69.06-2.71.874-4.285-.29 1.32-1.652 3.28-1.755 4.29-3.95-2.74-.08-5.162.08-7.62.88-2.553-.286-6.88-1.79-6.88-1.79zm.877 2.377c.67.128 2.802 1.773 2.802 1.773-.88.15-2.802.078-2.802.078z" fill="#fff" fill-rule="evenodd"/></g></svg>