<svg xmlns="http://www.w3.org/2000/svg" width="48" height="48" enable-background="new"><defs><linearGradient x1="9.172" y1="10.655" x2="57.14" y2="56.176" gradientUnits="userSpaceOnUse" id="b"><stop offset="0" stop-opacity=".3"/><stop offset="1" stop-opacity="0"/></linearGradient><filter id="c" height="130%"><feColorMatrix values="0 0 0 0 0 0 0 0 0 0 0 0 0 0 0 0 0 0 .4 0"/><feOffset dy="1"/><feGaussianBlur stdDeviation=".5" result="result1"/><feComposite in="SourceGraphic" in2="result1"/></filter><filter id="a" x="-.036" width="1.072" y="-.036" height="1.072" color-interpolation-filters="sRGB"><feGaussianBlur stdDeviation=".63"/></filter></defs><g fill="none" stroke-width="none" stroke-miterlimit="10" font-family="none" font-weight="none" font-size="none" text-anchor="none" style="mix-blend-mode:normal"><rect style="mix-blend-mode:normal" width="42" height="42" x="3" y="4" ry="2.218" fill="#000" fill-opacity=".392" filter="url(#a)"/><rect width="42" height="42" x="3" y="3" ry="2.218" fill="#880e4f"/><path d="M15.58 30.058L30.524 45h4.713l-7.75-7.75 7.75 7.75H43c1.105 0 2-.895 2-2V21.552l-8.534-8.535C35 11.55 32.96 10.655 30.673 10.655c-2.572 0-5.04 1.193-6.656 3.072l-.47-.47c-1.606-1.606-3.87-2.602-6.22-2.602-4.574 0-8.155 3.58-8.155 8.155 0 3.866 2.405 7.244 6.41 11.248l.023.025-.024-.025zm12.408 4.185c.857-2.34 2.738-4.142 5.13-4.894-1.48 1.52-3.204 3.13-5.13 4.89z" fill="url(#b)"/><path d="M24 37.605l-2.15-1.95C14.214 28.723 9.172 24.148 9.172 18.55c0-4.574 3.58-8.155 8.155-8.155 2.58 0 5.057 1.202 6.673 3.092 1.616-1.89 4.092-3.092 6.673-3.092 4.574 0 8.155 3.58 8.155 8.156 0 5.6-5.042 10.178-12.678 17.11z" fill="#f06292"/><path d="M15.02 36V24h30v12z" fill="#212121" filter="url(#c)"/><text x="29" y="33" fill="#fff" stroke-width="1" font-family="sans-serif" font-weight="bold" font-size="8" text-anchor="middle">BETA</text></g></svg>