<svg xmlns="http://www.w3.org/2000/svg" xmlns:xlink="http://www.w3.org/1999/xlink" width="1600" height="150" viewBox="0 0 1600 150"><defs><linearGradient id="a"><stop offset="0" stop-color="#d7ccc8"/><stop offset="1" stop-color="#af9991"/></linearGradient><linearGradient xlink:href="#a" id="z" gradientUnits="userSpaceOnUse" gradientTransform="matrix(-1.6338938,0,0,1.6731926,1036.126,-1080.0731)" x1="432.838" y1="1710.823" x2="432.994" y2="1701.274"/><linearGradient xlink:href="#a" id="C" gradientUnits="userSpaceOnUse" gradientTransform="matrix(-1.6338938,0,0,1.6731926,1036.126,-1080.0731)" x1="432.838" y1="1710.823" x2="432.994" y2="1701.274"/><linearGradient xlink:href="#a" id="F" gradientUnits="userSpaceOnUse" gradientTransform="matrix(-1.6338938,0,0,1.6731926,1036.126,-1080.0731)" x1="432.838" y1="1710.823" x2="432.994" y2="1701.274"/><linearGradient y2="1701.274" x2="432.994" y1="1710.823" x1="432.838" gradientTransform="matrix(-1.6338938,0,0,1.6731926,1036.126,-1080.0731)" gradientUnits="userSpaceOnUse" id="t" xlink:href="#a"/><linearGradient y2="1694.337" x2="432.94" y1="1707.195" x1="432.893" gradientTransform="matrix(1.7209929,0,0,1.5816206,-419.00725,-929.62796)" gradientUnits="userSpaceOnUse" id="u" xlink:href="#a"/><linearGradient y2="1694.337" x2="432.94" y1="1707.195" x1="432.893" gradientTransform="matrix(-1.4111655,0,0,1.3499582,938.1646,-544.85556)" gradientUnits="userSpaceOnUse" id="v" xlink:href="#a"/><linearGradient y2="1701.274" x2="432.994" y1="1710.823" x1="432.838" gradientTransform="matrix(-1.6338938,0,0,1.6731926,1036.126,-1080.0731)" gradientUnits="userSpaceOnUse" id="I" xlink:href="#a"/><linearGradient y2="1701.274" x2="432.994" y1="1710.823" x1="432.838" gradientTransform="matrix(-1.6338938,0,0,1.6731926,1036.126,-1080.0731)" gradientUnits="userSpaceOnUse" id="k" xlink:href="#a"/><linearGradient y2="1694.337" x2="432.94" y1="1707.195" x1="432.893" gradientTransform="matrix(1.7209929,0,0,1.5816206,-419.00725,-929.62796)" gradientUnits="userSpaceOnUse" id="l" xlink:href="#a"/><linearGradient y2="1694.337" x2="432.94" y1="1707.195" x1="432.893" gradientTransform="matrix(-1.4111655,0,0,1.3499582,938.1646,-544.85556)" gradientUnits="userSpaceOnUse" id="m" xlink:href="#a"/><linearGradient y2="1701.274" x2="432.994" y1="1710.823" x1="432.838" gradientTransform="matrix(-1.6338938,0,0,1.6731926,1036.126,-1080.0731)" gradientUnits="userSpaceOnUse" id="e" xlink:href="#a"/><linearGradient y2="1694.337" x2="432.94" y1="1707.195" x1="432.893" gradientTransform="matrix(1.7209929,0,0,1.5816206,-419.00725,-929.62796)" gradientUnits="userSpaceOnUse" id="f" xlink:href="#a"/><linearGradient y2="1694.337" x2="432.94" y1="1707.195" x1="432.893" gradientTransform="matrix(-1.4111655,0,0,1.3499582,938.1646,-544.85556)" gradientUnits="userSpaceOnUse" id="g" xlink:href="#a"/><linearGradient y2="1701.274" x2="432.994" y1="1710.823" x1="432.838" gradientTransform="matrix(-1.6338938,0,0,1.6731926,1036.126,-1080.0731)" gradientUnits="userSpaceOnUse" id="b" xlink:href="#a"/><linearGradient y2="1694.337" x2="432.94" y1="1707.195" x1="432.893" gradientTransform="matrix(1.7209929,0,0,1.5816206,-419.00725,-929.62796)" gradientUnits="userSpaceOnUse" id="c" xlink:href="#a"/><linearGradient y2="1694.337" x2="432.94" y1="1707.195" x1="432.893" gradientTransform="matrix(-1.4111655,0,0,1.3499582,938.1646,-544.85556)" gradientUnits="userSpaceOnUse" id="d" xlink:href="#a"/><linearGradient y2="1701.274" x2="432.994" y1="1710.823" x1="432.838" gradientTransform="matrix(-1.6338938,0,0,1.6731926,1036.126,-1080.0731)" gradientUnits="userSpaceOnUse" id="h" xlink:href="#a"/><linearGradient y2="1694.337" x2="432.94" y1="1707.195" x1="432.893" gradientTransform="matrix(1.7209929,0,0,1.5816206,-419.00725,-929.62796)" gradientUnits="userSpaceOnUse" id="i" xlink:href="#a"/><linearGradient y2="1694.337" x2="432.94" y1="1707.195" x1="432.893" gradientTransform="matrix(-1.4111655,0,0,1.3499582,938.1646,-544.85556)" gradientUnits="userSpaceOnUse" id="j" xlink:href="#a"/><linearGradient y2="1701.274" x2="432.994" y1="1710.823" x1="432.838" gradientTransform="matrix(-1.6338938,0,0,1.6731926,1036.126,-1080.0731)" gradientUnits="userSpaceOnUse" id="n" xlink:href="#a"/><linearGradient y2="1694.337" x2="432.94" y1="1707.195" x1="432.893" gradientTransform="matrix(1.7209929,0,0,1.5816206,-419.00725,-929.62796)" gradientUnits="userSpaceOnUse" id="o" xlink:href="#a"/><linearGradient y2="1694.337" x2="432.94" y1="1707.195" x1="432.893" gradientTransform="matrix(-1.4111655,0,0,1.3499582,938.1646,-544.85556)" gradientUnits="userSpaceOnUse" id="p" xlink:href="#a"/><linearGradient y2="1701.274" x2="432.994" y1="1710.823" x1="432.838" gradientTransform="matrix(-1.6338938,0,0,1.6731926,1036.126,-1080.0731)" gradientUnits="userSpaceOnUse" id="q" xlink:href="#a"/><linearGradient y2="1694.337" x2="432.94" y1="1707.195" x1="432.893" gradientTransform="matrix(1.7209929,0,0,1.5816206,-419.00725,-929.62796)" gradientUnits="userSpaceOnUse" id="r" xlink:href="#a"/><linearGradient y2="1694.337" x2="432.94" y1="1707.195" x1="432.893" gradientTransform="matrix(-1.4111655,0,0,1.3499582,938.1646,-544.85556)" gradientUnits="userSpaceOnUse" id="s" xlink:href="#a"/><linearGradient y2="1701.274" x2="432.994" y1="1710.823" x1="432.838" gradientTransform="matrix(-1.6338938,0,0,1.6731926,1036.126,-1080.0731)" gradientUnits="userSpaceOnUse" id="w" xlink:href="#a"/><linearGradient y2="1694.337" x2="432.94" y1="1707.195" x1="432.893" gradientTransform="matrix(1.7209929,0,0,1.5816206,-419.00725,-929.62796)" gradientUnits="userSpaceOnUse" id="x" xlink:href="#a"/><linearGradient y2="1694.337" x2="432.94" y1="1707.195" x1="432.893" gradientTransform="matrix(-1.4111655,0,0,1.3499582,938.1646,-544.85556)" gradientUnits="userSpaceOnUse" id="y" xlink:href="#a"/><linearGradient xlink:href="#a" id="A" gradientUnits="userSpaceOnUse" gradientTransform="matrix(1.7209929,0,0,1.5816206,-419.00725,-929.62796)" x1="432.893" y1="1707.195" x2="432.94" y2="1694.337"/><linearGradient xlink:href="#a" id="B" gradientUnits="userSpaceOnUse" gradientTransform="matrix(-1.4111655,0,0,1.3499582,938.1646,-544.85556)" x1="432.893" y1="1707.195" x2="432.94" y2="1694.337"/><linearGradient y2="1694.337" x2="432.94" y1="1707.195" x1="432.893" gradientTransform="matrix(-1.4111655,0,0,1.3499582,938.1646,-544.85556)" gradientUnits="userSpaceOnUse" id="E" xlink:href="#a"/><linearGradient xlink:href="#a" id="D" gradientUnits="userSpaceOnUse" gradientTransform="matrix(1.7209929,0,0,1.5816206,-419.00725,-929.62796)" x1="432.893" y1="1707.195" x2="432.94" y2="1694.337"/><linearGradient xlink:href="#a" id="G" gradientUnits="userSpaceOnUse" gradientTransform="matrix(1.7209929,0,0,1.5816206,-419.00725,-929.62796)" x1="432.893" y1="1707.195" x2="432.94" y2="1694.337"/><linearGradient y2="1694.337" x2="432.94" y1="1707.195" x1="432.893" gradientTransform="matrix(-1.4111655,0,0,1.3499582,938.1646,-544.85556)" gradientUnits="userSpaceOnUse" id="H" xlink:href="#a"/><linearGradient xlink:href="#a" id="J" gradientUnits="userSpaceOnUse" gradientTransform="matrix(1.7209929,0,0,1.5816206,-419.00725,-929.62796)" x1="432.893" y1="1707.195" x2="432.94" y2="1694.337"/><linearGradient y2="1694.337" x2="432.94" y1="1707.195" x1="432.893" gradientTransform="matrix(-1.4111655,0,0,1.3499582,938.1646,-544.85556)" gradientUnits="userSpaceOnUse" id="K" xlink:href="#a"/></defs><path fill="#e1f5fe" fill-rule="evenodd" d="M-71.27-199.752h1687.99v616.408H-71.27z"/><g fill-rule="evenodd"><path d="M353.954 1786.943c-14.44-12.222-21.043-22.435-25.22-30.336-8.22 10.806-21.388 23.05-26.974 30.31z" fill="url(#b)" transform="translate(0,-902.3622) matrix(0.63239697,-0.04399251,0.04399251,0.63239697,666.37864,-102.57814)"/><path d="M301.905 1777.107c14.517-12.438 17.012-21.812 21.412-29.28 8.658 10.214 21.58 22.8 27.464 29.66-6.43-.405-7.17-5.217-9.91-1.41-1.32 1.837-2.65-.26-3.9-1.16-2.04-1.474-3.08-1.997-4.77.635-1 1.553-2.95 1.397-4.46.125-1.8-1.516-3.75-3.506-6.15-1.175-2.72 2.64-4.49 3.602-5.78 1.925-2.11-2.746-4.65-.588-6.6.607-1.95 1.195-7.28.073-7.28.073z" fill="url(#c)" transform="translate(0,-902.3622) matrix(0.63239697,-0.04399251,0.04399251,0.63239697,666.37864,-102.57814)"/><path d="M346.452 1765.486c-12.472-9.86-15.642-15.29-19.25-21.663-7.1 8.72-15.57 17.84-21.6 23.16 6.93-.213 7.853-4.446 9.488-2.442 1.156 1.42 2.336 1.73 3.438.71 1.505-1.39 2.248-3.4 3.675-1.15.726 1.15 1.66 2.86 3.65.48 1.475-1.76 3.453-2.99 5.06-1.37 2.26 2.28 3.51 3.63 4.742 1.65 1.173-1.89 2.392-1.82 3.956-1.19 1.57.63 6.85 1.84 6.85 1.84z" fill="url(#d)" transform="translate(0,-902.3622) matrix(0.63239697,-0.04399251,0.04399251,0.63239697,666.37864,-102.57814)"/><path d="M940.547 91.536c4.55-5.13 6.69-7.82 8.1-10.92 3.117 4.172 7.297 7.37 9.65 9.96-2.376.004-3.12-1.868-3.548-.63-.33.932-.74 1.137-1.18.503-.7-1.02-1.66-1.15-2.03-.5-.74 1.29-.91 1.43-1.35 1.03-.78-.71-2.12-1.95-2.59-1.18-.78 1.27-1.57 1.51-2.07.91-.49-.59-1.43-.69-2.42-.02-.99.66-2.58.83-2.58.83z" fill="#d7ccc8"/></g><g fill-rule="evenodd"><path d="M353.954 1786.943c-14.44-12.222-21.043-22.435-25.22-30.336-8.22 10.806-21.388 23.05-26.974 30.31z" fill="url(#e)" transform="translate(0,-902.3622) matrix(0.8571168,-0.06678585,0.06678585,0.8571168,511.36955,-494.15256)"/><path d="M301.905 1777.107c14.517-12.438 17.012-21.812 21.412-29.28 8.658 10.214 21.58 22.8 27.464 29.66-6.43-.405-7.17-5.217-9.91-1.41-1.32 1.837-2.65-.26-3.9-1.16-2.04-1.474-3.08-1.997-4.77.635-1 1.553-2.95 1.397-4.46.125-1.8-1.516-3.75-3.506-6.15-1.175-2.72 2.64-4.49 3.602-5.78 1.925-2.11-2.746-4.65-.588-6.6.607-1.95 1.195-7.28.073-7.28.073z" fill="url(#f)" transform="translate(0,-902.3622) matrix(0.8571168,-0.06678585,0.06678585,0.8571168,511.36955,-494.15256)"/><path d="M346.452 1765.486c-12.472-9.86-15.642-15.29-19.25-21.663-7.1 8.72-15.57 17.84-21.6 23.16 6.93-.213 7.853-4.446 9.488-2.442 1.156 1.42 2.336 1.73 3.438.71 1.505-1.39 2.248-3.4 3.675-1.15.726 1.15 1.66 2.86 3.65.48 1.475-1.76 3.453-2.99 5.06-1.37 2.26 2.28 3.51 3.63 4.742 1.65 1.173-1.89 2.392-1.82 3.956-1.19 1.57.63 6.85 1.84 6.85 1.84z" fill="url(#g)" transform="translate(0,-902.3622) matrix(0.8571168,-0.06678585,0.06678585,0.8571168,511.36955,-494.15256)"/><path d="M895.533 87.36c6.114-7.006 8.984-10.68 10.86-14.898 4.276 5.62 9.98 9.91 13.2 13.398-3.222.03-4.25-2.5-4.818-.817-.428 1.268-.985 1.55-1.584.696-.95-1.37-2.25-1.54-2.75-.65-.98 1.76-1.21 1.96-1.81 1.41-1.06-.96-2.89-2.63-3.52-1.57-1.04 1.74-2.11 2.06-2.8 1.27-.67-.79-1.95-.91-3.27 0s-3.49 1.15-3.49 1.15z" fill="#d7ccc8"/></g><g fill-rule="evenodd"><path d="M353.954 1786.943c-14.44-12.222-21.043-22.435-25.22-30.336-8.22 10.806-21.388 23.05-26.974 30.31z" fill="url(#h)" transform="translate(0,-902.3622) matrix(-0.97382294,0.08827023,0.08827023,0.97382294,766.82603,-738.69916)"/><path d="M301.905 1777.107c14.517-12.438 17.012-21.812 21.412-29.28 8.658 10.214 21.58 22.8 27.464 29.66-6.43-.405-7.17-5.217-9.91-1.41-1.32 1.837-2.65-.26-3.9-1.16-2.04-1.474-3.08-1.997-4.77.635-1 1.553-2.95 1.397-4.46.125-1.8-1.516-3.75-3.506-6.15-1.175-2.72 2.64-4.49 3.602-5.78 1.925-2.11-2.746-4.65-.588-6.6.607-1.95 1.195-7.28.073-7.28.073z" fill="url(#i)" transform="translate(0,-902.3622) matrix(-0.97382294,0.08827023,0.08827023,0.97382294,766.82603,-738.69916)"/><path d="M346.452 1765.486c-12.472-9.86-15.642-15.29-19.25-21.663-7.1 8.72-15.57 17.84-21.6 23.16 6.93-.213 7.853-4.446 9.488-2.442 1.156 1.42 2.336 1.73 3.438.71 1.505-1.39 2.248-3.4 3.675-1.15.726 1.15 1.66 2.86 3.65.48 1.475-1.76 3.453-2.99 5.06-1.37 2.26 2.28 3.51 3.63 4.742 1.65 1.173-1.89 2.392-1.82 3.956-1.19 1.57.63 6.85 1.84 6.85 1.84z" fill="url(#j)" transform="translate(0,-902.3622) matrix(-0.97382294,0.08827023,0.08827023,0.97382294,766.82603,-738.69916)"/><path d="M618.52 95.98c-8.19-6.694-12.107-10.267-15.014-14.64-3.724 7.117-9.305 13.012-12.252 17.537 3.62-.58 4.293-3.612 5.25-1.833.72 1.34 1.398 1.55 1.907.48.82-1.717 2.24-2.158 2.98-1.25 1.44 1.788 1.73 1.966 2.3 1.242 1.01-1.273 2.75-3.49 3.65-2.432 1.5 1.75 2.77 1.915 3.38.89.6-1.01 2.01-1.392 3.68-.624 1.66.768 4.14.63 4.14.63z" fill="#d7ccc8"/></g><g fill-rule="evenodd"><path d="M353.954 1786.943c-14.44-12.222-21.043-22.435-25.22-30.336-8.22 10.806-21.388 23.05-26.974 30.31z" fill="url(#k)" transform="translate(0,-902.3622) matrix(1.2527354,-0.05980883,0.05980883,1.2527354,335.6059,-1200.494)"/><path d="M301.905 1777.107c14.517-12.438 17.012-21.812 21.412-29.28 8.658 10.214 21.58 22.8 27.464 29.66-6.43-.405-7.17-5.217-9.91-1.41-1.32 1.837-2.65-.26-3.9-1.16-2.04-1.474-3.08-1.997-4.77.635-1 1.553-2.95 1.397-4.46.125-1.8-1.516-3.75-3.506-6.15-1.175-2.72 2.64-4.49 3.602-5.78 1.925-2.11-2.746-4.65-.588-6.6.607-1.95 1.195-7.28.073-7.28.073z" fill="url(#l)" transform="translate(0,-902.3622) matrix(1.2527354,-0.05980883,0.05980883,1.2527354,335.6059,-1200.494)"/><path d="M346.452 1765.486c-12.472-9.86-15.642-15.29-19.25-21.663-7.1 8.72-15.57 17.84-21.6 23.16 6.93-.213 7.853-4.446 9.488-2.442 1.156 1.42 2.336 1.73 3.438.71 1.505-1.39 2.248-3.4 3.675-1.15.726 1.15 1.66 2.86 3.65.48 1.475-1.76 3.453-2.99 5.06-1.37 2.26 2.28 3.51 3.63 4.742 1.65 1.173-1.89 2.392-1.82 3.956-1.19 1.57.63 6.85 1.84 6.85 1.84z" fill="url(#m)" transform="translate(0,-902.3622) matrix(1.2527354,-0.05980883,0.05980883,1.2527354,335.6059,-1200.494)"/><path d="M830.724 77.702c9.22-9.95 13.568-15.18 16.488-21.248 5.988 8.384 14.12 14.887 18.662 20.116-4.7-.097-6.09-3.83-6.992-1.403-.68 1.83-1.504 2.218-2.34.946-1.336-2.036-3.223-2.345-3.994-1.06-1.514 2.524-1.85 2.8-2.702 1.982-1.502-1.44-4.103-3.95-5.07-2.445-1.597 2.49-3.176 2.92-4.136 1.726-.944-1.174-2.802-1.412-4.777-.143-1.974 1.27-5.14 1.53-5.14 1.53z" fill="#d7ccc8"/></g><g fill-rule="evenodd"><path d="M353.954 1786.943c-14.44-12.222-21.043-22.435-25.22-30.336-8.22 10.806-21.388 23.05-26.974 30.31z" fill="url(#n)" transform="translate(0,-902.3622) matrix(-0.78414579,0.04733074,0.04733074,0.78414579,826.65567,-389.4724)"/><path d="M301.905 1777.107c14.517-12.438 17.012-21.812 21.412-29.28 8.658 10.214 21.58 22.8 27.464 29.66-6.43-.405-7.17-5.217-9.91-1.41-1.32 1.837-2.65-.26-3.9-1.16-2.04-1.474-3.08-1.997-4.77.635-1 1.553-2.95 1.397-4.46.125-1.8-1.516-3.75-3.506-6.15-1.175-2.72 2.64-4.49 3.602-5.78 1.925-2.11-2.746-4.65-.588-6.6.607-1.95 1.195-7.28.073-7.28.073z" fill="url(#o)" transform="translate(0,-902.3622) matrix(-0.78414579,0.04733074,0.04733074,0.78414579,826.65567,-389.4724)"/><path d="M346.452 1765.486c-12.472-9.86-15.642-15.29-19.25-21.663-7.1 8.72-15.57 17.84-21.6 23.16 6.93-.213 7.853-4.446 9.488-2.442 1.156 1.42 2.336 1.73 3.438.71 1.505-1.39 2.248-3.4 3.675-1.15.726 1.15 1.66 2.86 3.65.48 1.475-1.76 3.453-2.99 5.06-1.37 2.26 2.28 3.51 3.63 4.742 1.65 1.173-1.89 2.392-1.82 3.956-1.19 1.57.63 6.85 1.84 6.85 1.84z" fill="url(#p)" transform="translate(0,-902.3622) matrix(-0.78414579,0.04733074,0.04733074,0.78414579,826.65567,-389.4724)"/><path d="M665.55 99.477c-6.416-5.572-9.475-8.536-11.703-12.118-3.163 5.62-7.788 10.22-10.263 13.78 2.92-.38 3.534-2.8 4.26-1.35.545 1.09 1.085 1.28 1.52.43.694-1.36 1.85-1.68 2.415-.93 1.11 1.47 1.34 1.62 1.81 1.05.84-1 2.29-2.74 2.99-1.87 1.16 1.44 2.17 1.6 2.69.79.5-.8 1.65-1.07 2.96-.41 1.31.65 3.3.6 3.3.6z" fill="#d7ccc8"/></g><g fill-rule="evenodd"><path d="M353.954 1786.943c-14.44-12.222-21.043-22.435-25.22-30.336-8.22 10.806-21.388 23.05-26.974 30.31z" fill="url(#q)" transform="translate(0,-902.3622) matrix(-1.5268002,0,0,1.5268002,676.69495,-1700.1686)"/><path d="M301.905 1777.107c14.517-12.438 17.012-21.812 21.412-29.28 8.658 10.214 21.58 22.8 27.464 29.66-6.43-.405-7.17-5.217-9.91-1.41-1.32 1.837-2.65-.26-3.9-1.16-2.04-1.474-3.08-1.997-4.77.635-1 1.553-2.95 1.397-4.46.125-1.8-1.516-3.75-3.506-6.15-1.175-2.72 2.64-4.49 3.602-5.78 1.925-2.11-2.746-4.65-.588-6.6.607-1.95 1.195-7.28.073-7.28.073z" fill="url(#r)" transform="translate(0,-902.3622) matrix(-1.5268002,0,0,1.5268002,676.69495,-1700.1686)"/><path d="M346.452 1765.486c-12.472-9.86-15.642-15.29-19.25-21.663-7.1 8.72-15.57 17.84-21.6 23.16 6.93-.213 7.853-4.446 9.488-2.442 1.156 1.42 2.336 1.73 3.438.71 1.505-1.39 2.248-3.4 3.675-1.15.726 1.15 1.66 2.86 3.65.48 1.475-1.76 3.453-2.99 5.06-1.37 2.26 2.28 3.51 3.63 4.742 1.65 1.173-1.89 2.392-1.82 3.956-1.19 1.57.63 6.85 1.84 6.85 1.84z" fill="url(#s)" transform="translate(0,-902.3622) matrix(-1.5268002,0,0,1.5268002,676.69495,-1700.1686)"/><path d="M201.223 77.775c-11.79-11.562-17.38-17.67-21.283-24.88-6.795 10.543-16.305 18.922-21.525 25.544 5.71-.39 7.184-5.02 8.42-2.12.932 2.18 1.958 2.61 2.9 1.01 1.507-2.56 3.784-3.04 4.796-1.52 1.99 2.98 2.42 3.3 3.41 2.25 1.74-1.84 4.76-5.04 6.02-3.27 2.09 2.93 4.03 3.36 5.13 1.86 1.08-1.48 3.33-1.88 5.8-.45 2.48 1.43 6.34 1.56 6.34 1.56z" fill="#d7ccc8"/></g><g fill-rule="evenodd"><path d="M353.954 1786.943c-14.44-12.222-21.043-22.435-25.22-30.336-8.22 10.806-21.388 23.05-26.974 30.31z" fill="url(#t)" transform="translate(0,-902.3622) matrix(-1.1311802,0.00344006,0.00344006,1.1311802,594.72914,-992.90607)"/><path d="M301.905 1777.107c14.517-12.438 17.012-21.812 21.412-29.28 8.658 10.214 21.58 22.8 27.464 29.66-6.43-.405-7.17-5.217-9.91-1.41-1.32 1.837-2.65-.26-3.9-1.16-2.04-1.474-3.08-1.997-4.77.635-1 1.553-2.95 1.397-4.46.125-1.8-1.516-3.75-3.506-6.15-1.175-2.72 2.64-4.49 3.602-5.78 1.925-2.11-2.746-4.65-.588-6.6.607-1.95 1.195-7.28.073-7.28.073z" fill="url(#u)" transform="translate(0,-902.3622) matrix(-1.1311802,0.00344006,0.00344006,1.1311802,594.72914,-992.90607)"/><path d="M346.452 1765.486c-12.472-9.86-15.642-15.29-19.25-21.663-7.1 8.72-15.57 17.84-21.6 23.16 6.93-.213 7.853-4.446 9.488-2.442 1.156 1.42 2.336 1.73 3.438.71 1.505-1.39 2.248-3.4 3.675-1.15.726 1.15 1.66 2.86 3.65.48 1.475-1.76 3.453-2.99 5.06-1.37 2.26 2.28 3.51 3.63 4.742 1.65 1.173-1.89 2.392-1.82 3.956-1.19 1.57.63 6.85 1.84 6.85 1.84z" fill="url(#v)" transform="translate(0,-902.3622) matrix(-1.1311802,0.00344006,0.00344006,1.1311802,594.72914,-992.90607)"/><path d="M248.5 91.596c-8.762-8.54-12.917-13.052-15.825-18.385-5.01 7.83-12.037 14.06-15.89 18.98 4.23-.3 5.31-3.73 6.234-1.58.69 1.62 1.45 1.93 2.15.75 1.11-1.89 2.79-2.26 3.55-1.14 1.47 2.21 1.79 2.44 2.52 1.67 1.28-1.36 3.51-3.74 4.45-2.43 1.55 2.17 2.99 2.49 3.8 1.37.79-1.1 2.46-1.4 4.29-.346s4.7 1.14 4.7 1.14z" fill="#d7ccc8"/></g><g fill-rule="evenodd"><path d="M353.954 1786.943c-14.44-12.222-21.043-22.435-25.22-30.336-8.22 10.806-21.388 23.05-26.974 30.31z" fill="url(#w)" transform="translate(0,-902.3622) matrix(1.6725529,0,0,1.6725529,-438.10554,-1965.1296)"/><path d="M301.905 1777.107c14.517-12.438 17.012-21.812 21.412-29.28 8.658 10.214 21.58 22.8 27.464 29.66-6.43-.405-7.17-5.217-9.91-1.41-1.32 1.837-2.65-.26-3.9-1.16-2.04-1.474-3.08-1.997-4.77.635-1 1.553-2.95 1.397-4.46.125-1.8-1.516-3.75-3.506-6.15-1.175-2.72 2.64-4.49 3.602-5.78 1.925-2.11-2.746-4.65-.588-6.6.607-1.95 1.195-7.28.073-7.28.073z" fill="url(#x)" transform="translate(0,-902.3622) matrix(1.6725529,0,0,1.6725529,-438.10554,-1965.1296)"/><path d="M346.452 1765.486c-12.472-9.86-15.642-15.29-19.25-21.663-7.1 8.72-15.57 17.84-21.6 23.16 6.93-.213 7.853-4.446 9.488-2.442 1.156 1.42 2.336 1.73 3.438.71 1.505-1.39 2.248-3.4 3.675-1.15.726 1.15 1.66 2.86 3.65.48 1.475-1.76 3.453-2.99 5.06-1.37 2.26 2.28 3.51 3.63 4.742 1.65 1.173-1.89 2.392-1.82 3.956-1.19 1.57.63 6.85 1.84 6.85 1.84z" fill="url(#y)" transform="translate(0,-902.3622) matrix(1.6725529,0,0,1.6725529,-438.10554,-1965.1296)"/><path d="M82.756 68.684c12.917-12.666 19.04-19.357 23.315-27.256 7.45 11.55 17.87 20.73 23.58 27.983-6.25-.42-7.87-5.49-9.22-2.31-1.02 2.4-2.14 2.86-3.17 1.11-1.65-2.79-4.14-3.33-5.25-1.66-2.17 3.27-2.64 3.62-3.72 2.47-1.9-2.01-5.21-5.52-6.59-3.58-2.28 3.22-4.41 3.69-5.62 2.04-1.18-1.62-3.64-2.06-6.35-.49s-6.94 1.71-6.94 1.71z" fill="#d7ccc8"/></g><g transform="translate(0,-902.3622) matrix(0,1.3914582,-1.3914582,0,1823.6217,846.28827)" fill="#fff" fill-opacity=".393" fill-rule="evenodd"><circle r="2.143" cy="1086.261" cx="141.445"/><circle r=".893" cy="1217.564" cx="171.356"/><circle r="1.339" cy="1189.35" cx="221.177"/><circle r="1.696" cy="1316.922" cx="225.008"/><circle r="2.143" cy="1254.971" cx="152.557"/><circle r="1.071" cy="1292.718" cx="126.575"/><circle r=".893" cy="1288.275" cx="182.468"/><circle r="1.339" cy="1260.061" cx="232.289"/><circle r="2.143" cy="1204.969" cx="166.699"/><circle r="1.071" cy="1242.715" cx="140.717"/><circle r=".893" cy="1238.272" cx="196.61"/><circle r="1.339" cy="1210.058" cx="246.431"/><circle r="2.143" cy="1130.217" cx="177.306"/><circle r="1.071" cy="1167.964" cx="151.324"/><circle r=".893" cy="1163.521" cx="207.216"/><circle r="1.339" cy="1135.307" cx="257.038"/><circle r="2.143" cy="1300.435" cx="171.985"/><circle r="1.071" cy="1074.324" cx="116.98"/><circle r=".893" cy="1069.882" cx="172.873"/><circle r="1.339" cy="1041.667" cx="222.694"/><circle r="2.143" cy="1107.289" cx="154.074"/><circle r="1.339" cy="1112.378" cx="233.806"/><circle r="2.143" cy="1057.286" cx="168.216"/><circle r="1.071" cy="1095.032" cx="142.234"/><circle r=".893" cy="1090.59" cx="198.126"/><circle r="1.339" cy="1062.376" cx="247.948"/><circle r="2.143" cy="982.535" cx="178.822"/><circle r="1.071" cy="1020.281" cx="152.841"/><circle r=".893" cy="1015.838" cx="208.733"/><circle r="1.339" cy="987.624" cx="258.554"/></g><g transform="translate(0,-902.3622) matrix(0,1.3914582,-1.3914582,0,2249.2934,821.29573)" fill="#fff" fill-opacity=".393" fill-rule="evenodd"><circle r="1.071" cy="1222.007" cx="115.463"/><circle r=".893" cy="1217.564" cx="171.356"/><circle r="1.339" cy="1189.35" cx="221.177"/><circle r="1.696" cy="1316.922" cx="225.008"/><circle r="2.143" cy="1254.971" cx="152.557"/><circle r=".893" cy="1288.275" cx="182.468"/><circle r="1.339" cy="1260.061" cx="232.289"/><circle r="2.143" cy="1204.969" cx="166.699"/><circle r="1.071" cy="1242.715" cx="140.717"/><circle r=".893" cy="1238.272" cx="196.61"/><circle r="1.339" cy="1210.058" cx="246.431"/><circle r="2.143" cy="1130.217" cx="177.306"/><circle r="1.071" cy="1167.964" cx="151.324"/><circle r=".893" cy="1163.521" cx="207.216"/><circle r="1.339" cy="1135.307" cx="257.038"/><circle r="2.143" cy="1300.435" cx="171.985"/><circle r=".893" cy="1069.882" cx="172.873"/><circle r="1.339" cy="1041.667" cx="222.694"/><circle r="2.143" cy="1107.289" cx="154.074"/><circle r="1.339" cy="1112.378" cx="233.806"/><circle r="2.143" cy="1057.286" cx="168.216"/><circle r=".893" cy="1090.59" cx="198.126"/><circle r="1.339" cy="1062.376" cx="247.948"/><circle r="2.143" cy="982.535" cx="178.822"/><circle r="1.071" cy="1020.281" cx="152.841"/><circle r=".893" cy="1015.838" cx="208.733"/><circle r="1.339" cy="987.624" cx="258.554"/></g><g fill-rule="evenodd"><path d="M353.954 1786.943c-14.44-12.222-21.043-22.435-25.22-30.336-8.22 10.806-21.388 23.05-26.974 30.31z" fill="url(#z)" transform="translate(0,-902.3622) matrix(1.2619957,0,0,1.2619957,900.5314,-1257.1198)"/><path d="M301.905 1777.107c14.517-12.438 17.012-21.812 21.412-29.28 8.658 10.214 21.58 22.8 27.464 29.66-6.43-.405-7.17-5.217-9.91-1.41-1.32 1.837-2.65-.26-3.9-1.16-2.04-1.474-3.08-1.997-4.77.635-1 1.553-2.95 1.397-4.46.125-1.8-1.516-3.75-3.506-6.15-1.175-2.72 2.64-4.49 3.602-5.78 1.925-2.11-2.746-4.65-.588-6.6.607-1.95 1.195-7.28.073-7.28.073z" fill="url(#A)" transform="translate(0,-902.3622) matrix(1.2619957,0,0,1.2619957,900.5314,-1257.1198)"/><path d="M346.452 1765.486c-12.472-9.86-15.642-15.29-19.25-21.663-7.1 8.72-15.57 17.84-21.6 23.16 6.93-.213 7.853-4.446 9.488-2.442 1.156 1.42 2.336 1.73 3.438.71 1.505-1.39 2.248-3.4 3.675-1.15.726 1.15 1.66 2.86 3.65.48 1.475-1.76 3.453-2.99 5.06-1.37 2.26 2.28 3.51 3.63 4.742 1.65 1.173-1.89 2.392-1.82 3.956-1.19 1.57.63 6.85 1.84 6.85 1.84z" fill="url(#B)" transform="translate(0,-902.3622) matrix(1.2619957,0,0,1.2619957,900.5314,-1257.1198)"/><path d="M1293.54 55.958c9.744-9.557 14.364-14.605 17.59-20.565 5.617 8.714 13.477 15.64 17.792 21.114-4.72-.323-5.938-4.143-6.96-1.745-.77 1.807-1.618 2.157-2.397.838-1.245-2.11-3.128-2.512-3.964-1.257-1.64 2.464-1.99 2.726-2.81 1.862-1.44-1.52-3.93-4.168-4.97-2.7-1.72 2.424-3.33 2.783-4.24 1.536-.89-1.22-2.75-1.55-4.79-.37-2.04 1.18-5.24 1.29-5.24 1.29z" fill="#d7ccc8"/></g><g fill-rule="evenodd"><path d="M353.954 1786.943c-14.44-12.222-21.043-22.435-25.22-30.336-8.22 10.806-21.388 23.05-26.974 30.31z" fill="url(#C)" transform="translate(0,-902.3622) matrix(0.63382047,-0.01152726,0.01152726,0.63382047,1037.7953,-131.91041)"/><path d="M301.905 1777.107c14.517-12.438 17.012-21.812 21.412-29.28 8.658 10.214 21.58 22.8 27.464 29.66-6.43-.405-7.17-5.217-9.91-1.41-1.32 1.837-2.65-.26-3.9-1.16-2.04-1.474-3.08-1.997-4.77.635-1 1.553-2.95 1.397-4.46.125-1.8-1.516-3.75-3.506-6.15-1.175-2.72 2.64-4.49 3.602-5.78 1.925-2.11-2.746-4.65-.588-6.6.607-1.95 1.195-7.28.073-7.28.073z" fill="url(#D)" transform="translate(0,-902.3622) matrix(0.63382047,-0.01152726,0.01152726,0.63382047,1037.7953,-131.91041)"/><path d="M346.452 1765.486c-12.472-9.86-15.642-15.29-19.25-21.663-7.1 8.72-15.57 17.84-21.6 23.16 6.93-.213 7.853-4.446 9.488-2.442 1.156 1.42 2.336 1.73 3.438.71 1.505-1.39 2.248-3.4 3.675-1.15.726 1.15 1.66 2.86 3.65.48 1.475-1.76 3.453-2.99 5.06-1.37 2.26 2.28 3.51 3.63 4.742 1.65 1.173-1.89 2.392-1.82 3.956-1.19 1.57.63 6.85 1.84 6.85 1.84z" fill="url(#E)" transform="translate(0,-902.3622) matrix(0.63382047,-0.01152726,0.01152726,0.63382047,1037.7953,-131.91041)"/><path d="M1255.414 74.813c4.808-4.89 7.08-7.467 8.647-10.49 2.91 4.326 6.92 7.733 9.13 10.442-2.37-.12-3.02-2.026-3.51-.813-.37.915-.79 1.1-1.19.443-.64-1.048-1.59-1.233-2-.595-.8 1.252-.97 1.388-1.39.96-.73-.75-2.01-2.056-2.52-1.31-.84 1.234-1.64 1.428-2.11.81-.46-.607-1.39-.755-2.41-.143-1.02.612-2.62.696-2.62.696z" fill="#d7ccc8"/></g><g fill-rule="evenodd"><path d="M353.954 1786.943c-14.44-12.222-21.043-22.435-25.22-30.336-8.22 10.806-21.388 23.05-26.974 30.31z" fill="url(#F)" transform="translate(0,-902.3622) matrix(0.63296511,0.03487746,-0.03487746,0.63296511,1405.8168,-148.20069)"/><path d="M301.905 1777.107c14.517-12.438 17.012-21.812 21.412-29.28 8.658 10.214 21.58 22.8 27.464 29.66-6.43-.405-7.17-5.217-9.91-1.41-1.32 1.837-2.65-.26-3.9-1.16-2.04-1.474-3.08-1.997-4.77.635-1 1.553-2.95 1.397-4.46.125-1.8-1.516-3.75-3.506-6.15-1.175-2.72 2.64-4.49 3.602-5.78 1.925-2.11-2.746-4.65-.588-6.6.607-1.95 1.195-7.28.073-7.28.073z" fill="url(#G)" transform="translate(0,-902.3622) matrix(0.63296511,0.03487746,-0.03487746,0.63296511,1405.8168,-148.20069)"/><path d="M346.452 1765.486c-12.472-9.86-15.642-15.29-19.25-21.663-7.1 8.72-15.57 17.84-21.6 23.16 6.93-.213 7.853-4.446 9.488-2.442 1.156 1.42 2.336 1.73 3.438.71 1.505-1.39 2.248-3.4 3.675-1.15.726 1.15 1.66 2.86 3.65.48 1.475-1.76 3.453-2.99 5.06-1.37 2.26 2.28 3.51 3.63 4.742 1.65 1.173-1.89 2.392-1.82 3.956-1.19 1.57.63 6.85 1.84 6.85 1.84z" fill="url(#H)" transform="translate(0,-902.3622) matrix(0.63296511,0.03487746,-0.03487746,0.63296511,1405.8168,-148.20069)"/><path d="M1541.705 71.472c5.153-4.524 7.61-6.928 9.392-9.828 2.576 4.526 6.327 8.217 8.34 11.08-2.358-.29-2.864-2.24-3.442-1.066-.437.885-.872 1.037-1.226.354-.57-1.093-1.5-1.346-1.96-.74-.89 1.19-1.08 1.312-1.46.856-.68-.802-1.86-2.2-2.42-1.492-.93 1.168-1.75 1.304-2.17.653-.42-.64-1.34-.86-2.4-.32-1.06.53-2.67.5-2.67.5z" fill="#d7ccc8"/></g><g fill-rule="evenodd"><path d="M353.954 1786.943c-14.44-12.222-21.043-22.435-25.22-30.336-8.22 10.806-21.388 23.05-26.974 30.31z" fill="url(#I)" transform="translate(0,-902.3622) matrix(0.69954482,0.03854612,-0.03854612,0.69954482,1356.3028,-270.22144)"/><path d="M301.905 1777.107c14.517-12.438 17.012-21.812 21.412-29.28 8.658 10.214 21.58 22.8 27.464 29.66-6.43-.405-7.17-5.217-9.91-1.41-1.32 1.837-2.65-.26-3.9-1.16-2.04-1.474-3.08-1.997-4.77.635-1 1.553-2.95 1.397-4.46.125-1.8-1.516-3.75-3.506-6.15-1.175-2.72 2.64-4.49 3.602-5.78 1.925-2.11-2.746-4.65-.588-6.6.607-1.95 1.195-7.28.073-7.28.073z" fill="url(#J)" transform="translate(0,-902.3622) matrix(0.69954482,0.03854612,-0.03854612,0.69954482,1356.3028,-270.22144)"/><path d="M346.452 1765.486c-12.472-9.86-15.642-15.29-19.25-21.663-7.1 8.72-15.57 17.84-21.6 23.16 6.93-.213 7.853-4.446 9.488-2.442 1.156 1.42 2.336 1.73 3.438.71 1.505-1.39 2.248-3.4 3.675-1.15.726 1.15 1.66 2.86 3.65.48 1.475-1.76 3.453-2.99 5.06-1.37 2.26 2.28 3.51 3.63 4.742 1.65 1.173-1.89 2.392-1.82 3.956-1.19 1.57.63 6.85 1.84 6.85 1.84z" fill="url(#K)" transform="translate(0,-902.3622) matrix(0.69954482,0.03854612,-0.03854612,0.69954482,1356.3028,-270.22144)"/><path d="M1506.485 67.475c5.694-5 8.41-7.657 10.38-10.862 2.847 5.002 6.993 9.08 9.217 12.247-2.606-.323-3.165-2.478-3.805-1.18-.482.978-.962 1.146-1.354.39-.626-1.207-1.657-1.486-2.16-.817-.985 1.316-1.187 1.45-1.614.947-.76-.887-2.06-2.43-2.68-1.65-1.03 1.292-1.94 1.442-2.4.723-.46-.706-1.48-.945-2.65-.353s-2.95.555-2.95.555z" fill="#d7ccc8"/></g><path d="M452.16 130.126c308.76-2.526 783.175-40.53 1023.173-41.99 239.998-1.463 234.548 73.72 455.67 97.117 221.12 23.397-266.964 383.123-345.166 380.2-78.2-2.926-1922.68-13.162-1946.95-35.096C-385.38 508.422-245.4 83.112-245.4 83.112c157.754 17.548 388.8 49.54 697.56 47.014z" fill="#fff" fill-rule="evenodd"/><g transform="translate(0,-902.3622) matrix(0.55981496,0,0,0.55981496,1041.4304,1144.6541)"><path d="M-15.646 921.02c-6.774-15.216-25.13-28.65-33.558-23.032-6.565 4.377-6.774 20.635 1.564 28.138 10.295 9.267 16.466 10.11 28.555 8.025 11.568-1.35 3.44-13.13 3.44-13.13zm81.77 0c6.773-15.216 25.13-28.65 33.556-23.032 6.566 4.377 6.774 20.635-1.563 28.138-10.296 9.267-16.466 10.11-28.555 8.025-11.568-1.35-3.44-13.13-3.44-13.13z" fill="#c5986c" fill-rule="evenodd"/><g stroke="#7a552f" fill="none" stroke-width="8.723" stroke-linecap="round"><path d="M-7.314 919.357c-.992-3.37-25.18-92.984-25.18-92.984m-23.394 22.997s17.05 7.337 30.334 3.57c13.283-3.767 25.18-18.636 25.18-18.636"/><path d="M-59.777 878.74s23.485 10.103 41.78 4.914c18.297-5.188 34.682-25.67 34.682-25.67"/></g><g stroke="#7a552f" fill="none" stroke-width="8.723" stroke-linecap="round"><path d="M59.37 919.357c.99-3.37 25.178-92.984 25.178-92.984m23.394 22.997s-17.05 7.337-30.334 3.57c-13.283-3.767-25.18-18.636-25.18-18.636"/><path d="M111.83 878.74s-23.483 10.103-41.78 4.914c-18.296-5.188-34.68-25.67-34.68-25.67"/></g><path d="M77.378 1015.44c7.414-12.59.034-40.298.034-46.55 0-6.254 3.482-33.107-8.353-51.088-9.37-14.22-24.71-20.75-43.74-21.71-19.04.96-34.38 7.49-43.74 21.71-11.84 17.98-8.36 44.834-8.36 51.087 0 6.25-7.38 33.96.03 46.55 5.51 9.36 31.04 13.5 52.06 13.32 21.01.18 46.54-3.97 52.05-13.33z" fill="#c5986c" fill-rule="evenodd"/><ellipse ry="12.298" rx="24.491" cy="994.525" cx="25.32" fill="#a01309" fill-rule="evenodd"/><ellipse ry="8.696" rx="4.422" cy="950.15" cx="12.676" fill-rule="evenodd"/><ellipse cx="38.053" cy="950.15" rx="4.422" ry="8.696" fill-rule="evenodd"/><path d="M-18.51 1020.308c-8.548 29.885-26.01 73.097-15.988 90.972 10.023 17.876 44.512 18.894 59.818 18.614 15.305.283 49.795-.738 59.817-18.614 10.023-17.875-7.44-61.087-15.988-90.972z" fill="#c5986c" fill-rule="evenodd"/><g fill-rule="evenodd"><path d="M1.548 1109.546s6.41 58.585 1.916 63.3c-4.622 4.85-25.444 3.943-29.845-.957-3.91-4.35 2.14-64.15 2.14-64.15z" fill="#c5986c"/><path d="M-27.642 1163.66c.118 4.3.49 7.37 1.26 8.228 4.402 4.9 25.223 5.807 29.845.958.898-.942 1.35-4.088 1.515-8.433-6.63 3.197-25.767 2.624-32.62-.752z" fill="#7a552f" stroke="#7a552f" stroke-width=".159"/></g><g fill-rule="evenodd"><path d="M48.78 1109.546s-6.412 58.585-1.916 63.3c4.62 4.85 25.443 3.943 29.845-.957 3.9-4.35-2.15-64.15-2.15-64.15z" fill="#c5986c"/><path d="M77.97 1163.66c-.118 4.3-.49 7.37-1.26 8.228-4.402 4.9-25.223 5.807-29.845.958-.898-.942-1.35-4.088-1.515-8.433 6.628 3.197 25.767 2.624 32.62-.752z" fill="#7a552f" stroke="#7a552f" stroke-width=".159"/></g><path d="M-24.296 1048.997s-11.51 87.176-7.49 91.602c4.018 4.42 43.968 5.25 48.295 1.03 4.32-4.22-6.21-90.98-6.21-90.98z" fill="#ab47bc" fill-rule="evenodd"/><path d="M-29.857 1096.28c-.886 8.537-1.68 16.952-2.184 24.172h49.12c-.43-7.29-1.12-15.704-1.91-24.17h-45.03zm5.322-45.392c-.248 1.89-1.427 10.938-2.98 24.17H13.05c-1.45-13.587-2.693-23.93-2.722-24.17h-34.863z" fill="#6a1b9a" fill-rule="evenodd" stroke="#6a1b9a" stroke-width=".079" stroke-linecap="square" stroke-linejoin="round"/><path d="M-39.303 1055.46c2.71 5.024 41.92 14.686 64.223 14.06 22.302-.624 60.83-8.177 64.38-13.227 3.55-5.05-7.85-33.238-12.714-36.268-4.866-3.03-32.754 7.036-50.47 7.87-17.718.834-44.713-10.653-50.62-8.495-5.907 2.158-17.51 31.034-14.8 36.06z" fill="#ab47bc" fill-rule="evenodd"/><path d="M-11.81 1021.056l-11.22 41.4c5.76 1.608 12.516 3.14 19.452 4.37l7.047-41.916zm74.206.074c-4.632.986-9.92 2.24-15.34 3.432l6.517 41.92c6.997-1.14 13.822-2.5 19.615-3.934l-10.792-41.418z" fill="#6a1b9a" fill-rule="evenodd" stroke="#6a1b9a" stroke-width=".079" stroke-linecap="square" stroke-linejoin="round"/><path d="M33.434 1027.152c-2.56.37-5.028.636-7.32.744-2.664.122-5.55-.05-8.53-.394l-3.24 41.67c3.764.293 7.356.44 10.574.347 2.915-.09 6.116-.29 9.47-.59l-.954-41.79z" fill="#6a1b9a" fill-rule="evenodd" stroke="#6a1b9a" stroke-width=".079"/><g fill-rule="evenodd"><path d="M-65.806 1080.906c-17.628-33.052 4.436-59.28 19.23-66.877 39.528-20.3 72.275 32.32 72.275 32.32s17.53-52.62 57.06-32.32c14.79 7.59 36.85 33.82 19.23 66.87-21.53 40.36-83.9 78.63-83.9 78.63s-62.37-38.27-83.9-78.63z" fill="#c92918"/><path d="M-60.014 1077.182c-17.627-33.052 4.437-59.28 19.23-66.877 39.53-20.3 64.67 13.888 64.67 13.888s25.138-34.187 64.667-13.888c14.793 7.597 36.857 33.825 19.23 66.877-21.527 40.364-83.898 78.63-83.898 78.63s-62.372-38.266-83.9-78.63z" fill="#e74c3c"/><path d="M-11.265 1019.376c-1.247-.13-2.503-.242-3.833-.216-4.855.106-10.254 1.346-16.12 4.357-8.1 4.16-19.394 16.563-17.168 32.98" fill="#e74c3c" stroke="#f3a39b" stroke-width="7.405" stroke-linecap="round"/></g><path d="M-74.674 1040.405c.628 2.806 6.364 4.43 7.504 4.255 6.51-1.006 18.653-17.943 17.12-24.465-.298-1.267-4.823-6.24-6.096-6.04-11.14 1.755-20.867 15.8-18.528 26.25zm191.796-2.365c-.628 2.805-6.364 4.43-7.504 4.253-6.51-1.006-18.653-17.943-17.12-24.464.298-1.27 4.823-6.24 6.096-6.04 11.14 1.75 20.867 15.79 18.528 26.25z" fill="#7a552f" fill-rule="evenodd" stroke="#7a552f" stroke-width=".159"/></g></svg>