<svg xmlns="http://www.w3.org/2000/svg" width="52.905" height="97.262" viewBox="0 0 52.905224 97.262169"><g transform="translate(20.624 -225.716) scale(.2746)"><path d="M-15.646 921.02c-6.774-15.216-25.13-28.65-33.558-23.032-6.565 4.377-6.774 20.635 1.564 28.138 10.295 9.267 16.466 10.11 28.555 8.025 11.568-1.35 3.44-13.13 3.44-13.13zm81.77 0c6.773-15.216 25.13-28.65 33.556-23.032 6.566 4.377 6.774 20.635-1.563 28.138-10.296 9.267-16.466 10.11-28.555 8.025-11.568-1.35-3.44-13.13-3.44-13.13z" fill="#c5986c" fill-rule="evenodd"/><g stroke="#7a552f" fill="none" stroke-width="8.723" stroke-linecap="round"><path d="M-7.314 919.357c-.992-3.37-25.18-92.984-25.18-92.984m-23.394 22.997s17.05 7.337 30.334 3.57c13.283-3.767 25.18-18.636 25.18-18.636"/><path d="M-59.777 878.74s23.485 10.103 41.78 4.914c18.297-5.188 34.682-25.67 34.682-25.67"/></g><g stroke="#7a552f" fill="none" stroke-width="8.723" stroke-linecap="round"><path d="M59.37 919.357c.99-3.37 25.178-92.984 25.178-92.984m23.394 22.997s-17.05 7.337-30.334 3.57c-13.283-3.767-25.18-18.636-25.18-18.636"/><path d="M111.83 878.74s-23.483 10.103-41.78 4.914c-18.296-5.188-34.68-25.67-34.68-25.67"/></g><path d="M77.378 1015.44c7.414-12.59.034-40.298.034-46.55 0-6.254 3.482-33.107-8.353-51.088-9.37-14.22-24.71-20.75-43.74-21.71-19.04.96-34.38 7.49-43.74 21.71-11.84 17.98-8.36 44.834-8.36 51.087 0 6.25-7.38 33.96.034 46.55 5.512 9.36 31.04 13.5 52.06 13.32 21.016.18 46.544-3.966 52.056-13.328z" fill="#c5986c" fill-rule="evenodd"/><ellipse ry="12.298" rx="24.491" cy="994.525" cx="25.32" fill="#a01309" fill-rule="evenodd"/><ellipse ry="8.696" rx="4.422" cy="950.15" cx="12.676" fill-rule="evenodd"/><ellipse cx="38.053" cy="950.15" rx="4.422" ry="8.696" fill-rule="evenodd"/><path d="M-18.51 1020.308c-8.548 29.885-26.01 73.097-15.988 90.972 10.023 17.876 44.512 18.894 59.818 18.614 15.305.283 49.795-.738 59.817-18.614 10.023-17.875-7.44-61.087-15.988-90.972z" fill="#c5986c" fill-rule="evenodd"/><g fill-rule="evenodd"><path d="M1.548 1109.546s6.41 58.585 1.916 63.3c-4.622 4.85-25.444 3.943-29.845-.957-3.91-4.35 2.14-64.15 2.14-64.15z" fill="#c5986c"/><path d="M-27.642 1163.66c.118 4.3.49 7.37 1.26 8.228 4.402 4.9 25.223 5.807 29.845.958.898-.942 1.35-4.088 1.515-8.433-6.63 3.197-25.767 2.624-32.62-.752z" fill="#7a552f" stroke="#7a552f" stroke-width=".159"/></g><g fill-rule="evenodd"><path d="M48.78 1109.546s-6.412 58.585-1.916 63.3c4.62 4.85 25.443 3.943 29.845-.957 3.9-4.35-2.15-64.15-2.15-64.15z" fill="#c5986c"/><path d="M77.97 1163.66c-.118 4.3-.49 7.37-1.26 8.228-4.402 4.9-25.223 5.807-29.845.958-.898-.942-1.35-4.088-1.515-8.433 6.628 3.197 25.767 2.624 32.62-.752z" fill="#7a552f" stroke="#7a552f" stroke-width=".159"/></g><path d="M-24.296 1048.997s-11.51 87.176-7.49 91.602c4.018 4.42 43.968 5.25 48.295 1.03 4.32-4.215-6.21-90.973-6.21-90.973z" fill="#ab47bc" fill-rule="evenodd"/><path d="M-29.857 1096.28c-.886 8.537-1.68 16.952-2.184 24.172h49.12c-.43-7.29-1.12-15.704-1.91-24.17h-45.03zm5.322-45.392c-.248 1.89-1.427 10.938-2.98 24.17H13.05c-1.45-13.587-2.693-23.93-2.722-24.17h-34.863z" fill="#6a1b9a" fill-rule="evenodd" stroke="#6a1b9a" stroke-width=".079" stroke-linecap="square" stroke-linejoin="round"/><path d="M-39.303 1055.46c2.71 5.024 41.92 14.686 64.223 14.06 22.302-.624 60.83-8.177 64.38-13.227 3.55-5.05-7.85-33.238-12.714-36.268-4.866-3.03-32.754 7.036-50.47 7.87-17.718.834-44.713-10.653-50.62-8.495-5.907 2.158-17.51 31.034-14.8 36.06z" fill="#ab47bc" fill-rule="evenodd"/><path d="M-11.81 1021.056l-11.22 41.4c5.76 1.608 12.516 3.14 19.452 4.37l7.047-41.916zm74.206.074c-4.632.986-9.92 2.24-15.34 3.432l6.517 41.92c6.997-1.14 13.822-2.5 19.615-3.934l-10.792-41.418z" fill="#6a1b9a" fill-rule="evenodd" stroke="#6a1b9a" stroke-width=".079" stroke-linecap="square" stroke-linejoin="round"/><path d="M33.434 1027.152c-2.56.37-5.028.636-7.32.744-2.664.122-5.55-.05-8.53-.394l-3.24 41.67c3.764.293 7.356.44 10.574.347 2.915-.09 6.116-.29 9.47-.59l-.954-41.788z" fill="#6a1b9a" fill-rule="evenodd" stroke="#6a1b9a" stroke-width=".079"/><g fill-rule="evenodd"><path d="M-65.806 1080.906c-17.628-33.052 4.436-59.28 19.23-66.877 39.528-20.3 72.275 32.32 72.275 32.32s17.53-52.62 57.06-32.32c14.79 7.59 36.85 33.82 19.23 66.87-21.53 40.362-83.9 78.63-83.9 78.63s-62.37-38.268-83.9-78.63z" fill="#c92918"/><path d="M-60.014 1077.182c-17.627-33.052 4.437-59.28 19.23-66.877 39.53-20.3 64.67 13.888 64.67 13.888s25.138-34.187 64.667-13.888c14.793 7.597 36.857 33.825 19.23 66.877-21.527 40.364-83.898 78.63-83.898 78.63s-62.372-38.266-83.9-78.63z" fill="#e74c3c"/><path d="M-11.265 1019.376c-1.247-.13-2.503-.242-3.833-.216-4.855.106-10.254 1.346-16.12 4.357-8.1 4.16-19.394 16.563-17.168 32.98" fill="#e74c3c" stroke="#f3a39b" stroke-width="7.405" stroke-linecap="round"/></g><path d="M-74.674 1040.405c.628 2.806 6.364 4.43 7.504 4.255 6.51-1.006 18.653-17.943 17.12-24.465-.298-1.267-4.823-6.24-6.096-6.04-11.14 1.755-20.867 15.8-18.528 26.25zm191.796-2.365c-.628 2.805-6.364 4.43-7.504 4.253-6.51-1.006-18.653-17.943-17.12-24.464.298-1.27 4.823-6.24 6.096-6.04 11.14 1.75 20.867 15.79 18.528 26.25z" fill="#7a552f" fill-rule="evenodd" stroke="#7a552f" stroke-width=".159"/></g></svg>