<svg xmlns="http://www.w3.org/2000/svg" width="48" height="48" enable-background="new"><defs><linearGradient id="b" gradientUnits="userSpaceOnUse" y2="51.951" x2="48.42" y1="12.232" x1="15.762" gradientTransform="matrix(1.1109399,0,0,1.1109399,-53.749713,-26.735173)"><stop stop-opacity=".17" offset="0"/><stop stop-opacity="0" offset="1"/></linearGradient><filter id="a" x="-.036" width="1.072" y="-.036" height="1.072" color-interpolation-filters="sRGB"><feGaussianBlur stdDeviation=".633"/></filter></defs><g fill="none" stroke-width="none" stroke-miterlimit="10" font-family="none" font-weight="none" font-size="none" text-anchor="none" style="mix-blend-mode:normal"><path d="m -45.973134,21.919617 c -1.227111,0 -2.221879,-0.994769 -2.221879,-2.22188 v -37.771956 c 0,-1.227111 0.994768,-2.22188 2.221879,-2.22188 h 37.7719565 c 1.227111,0 2.22188,0.994769 2.22188,2.22188 V 10.810219 L -17.088696,21.919617 Z" style="mix-blend-mode:normal" fill="#000" fill-opacity=".392" filter="url(#a)" transform="translate(51.087157,24.072616)"/><path d="m -45.973134,21.035242 c -1.227111,0 -2.221879,-0.994769 -2.221879,-2.22188 v -37.771956 c 0,-1.227111 0.994768,-2.22188 2.221879,-2.22188 h 37.7719567 c 1.2271109,0 2.2218798,0.994769 2.2218798,2.22188 V 9.9258435 L -17.088696,21.035242 Z" style="mix-blend-mode:normal" fill="#f5b912" transform="translate(51.087157,24.072616)"/><path style="mix-blend-mode:normal" d="m -31.009262,10.386339 h 2.075447 l -2.998783,-2.9987825 c -0.236963,-0.236963 -0.38404,-0.563802 -0.38404,-0.923324 v -2.754009 l -1.241442,-1.241442 c -1.653934,-1.65393403 -2.680665,-3.935771 -2.680665,-6.463493 0,-5.052976 4.098602,-9.1515785 9.151578,-9.1515785 2.526489,0 4.814381,1.024653 6.470659,2.68092 v 0 L -5.9793086,4.1718305 v 5.754024 L -17.088707,21.035253 h -5.118312 l -8.418213,-8.418214 c -0.236964,-0.236963 -0.384041,-0.563802 -0.384041,-0.923324 z" fill="url(#b)" transform="translate(51.087157,24.072616)"/><path d="m -31.009262,11.693704 c 0,0.719056 0.58832,1.307365 1.307365,1.307365 h 5.229472 c 0.719056,0 1.307365,-0.58832 1.307365,-1.307365 v -1.307365 h -7.844213 z m 3.922107,-24.840005 c -5.052977,0 -9.151579,4.0986015 -9.151579,9.1515785 0,3.11154297 1.555771,5.850476 3.922107,7.504299 v 2.954656 c 0,0.719056 0.58832,1.307365 1.307365,1.307365 h 7.844213 c 0.719056,0 1.307365,-0.58832 1.307365,-1.307365 v -2.954656 c 2.366336,-1.653823 3.922107,-4.39275603 3.922107,-7.504299 0,-5.052977 -4.098602,-9.1515785 -9.151578,-9.1515785 z m 3.732535,14.5117855 -1.117805,0.777881 v 3.01348 h -5.229472 v -3.006948 l -1.117805,-0.77788 c -1.758407,-1.22892203 -2.804302,-3.229203 -2.804302,-5.360207 0,-3.601801 2.935048,-6.5368495 6.536849,-6.5368495 3.6018,0 6.536848,2.9350485 6.536848,6.5368495 0,2.124472 -1.045895,4.12475297 -2.804301,5.353674 z" style="mix-blend-mode:normal" transform="translate(51.087157,24.072616)"/><path d="m -31.009262,10.386339 h 7.844213 v 1.307365 c 0,0.719056 -0.58832,1.307365 -1.307365,1.307365 h -5.229472 c -0.719056,0 -1.307365,-0.58832 -1.307365,-1.307365 z m 13.073685,-14.3810615 c 0,3.11154297 -1.555771,5.850476 -3.922107,7.504299 v 2.954656 c 0,0.719056 -0.58832,1.307365 -1.307365,1.307365 h -7.844213 c -0.719056,0 -1.307365,-0.58832 -1.307365,-1.307365 v -2.954656 c -2.366336,-1.653823 -3.922107,-4.39275603 -3.922107,-7.504299 0,-5.052977 4.098602,-9.1515785 9.151579,-9.1515785 5.052976,0 9.151578,4.0986015 9.151578,9.1515785 z m -2.61473,0.0066 c 0,-3.601801 -2.935048,-6.5368485 -6.536848,-6.5368485 -3.601801,0 -6.536849,2.9350475 -6.536849,6.5368485 0,2.131016 1.045895,4.13128497 2.804302,5.360207 l 1.117805,0.77788 v 3.006948 h 5.229472 v -3.01348 l 1.117805,-0.77788 c 1.758407,-1.22892203 2.804302,-3.229203 2.804302,-5.353675 z" style="mix-blend-mode:normal" fill="#fff" transform="translate(51.087157,24.072616)"/><path d="m -51.527833,-0.07261553 c 0,-13.49820847 10.942469,-24.44067747 24.440678,-24.44067747 13.498208,0 24.4406772,10.942469 24.4406772,24.44067747 0,13.49820853 -10.9424692,24.44067753 -24.4406772,24.44067753 -13.498209,0 -24.440678,-10.942469 -24.440678,-24.44067753 z" style="mix-blend-mode:normal" transform="translate(51.087157,24.072616)"/><path d="m -51.527833,-0.07261553 c 0,-13.49820847 10.942469,-24.44067747 24.440678,-24.44067747 13.498208,0 24.4406772,10.942469 24.4406772,24.44067747 0,13.49820853 -10.9424692,24.44067753 -24.4406772,24.44067753 -13.498209,0 -24.440678,-10.942469 -24.440678,-24.44067753 z" style="mix-blend-mode:normal" transform="translate(51.087157,24.072616)"/><path style="mix-blend-mode:normal" d="M-51.528 -24.513H-2.6469999999999985V-0.07200000000000273H-51.528z" transform="translate(51.087157,24.072616)"/><path d="M -51.527833,-0.07261553 V -24.513293 h 48.8813552 v 24.44067747 z" style="mix-blend-mode:normal" transform="translate(51.087157,24.072616)"/><path d="M -51.527833,-0.07261553 V -24.513293 h 48.8813552 v 24.44067747 z" style="mix-blend-mode:normal" transform="translate(51.087157,24.072616)"/><path d="M -51.527833,-0.07261553 V -24.513293 h 48.8813552 v 24.44067747 z" style="mix-blend-mode:normal" transform="translate(51.087157,24.072616)"/><path d="M -51.527833,-0.07261553 V -24.513293 h 48.8813552 v 24.44067747 z" style="mix-blend-mode:normal" transform="translate(51.087157,24.072616)"/><path style="mix-blend-mode:normal" d="M-51.528 -24.513H-2.6469999999999985V-0.07200000000000273H-51.528z" transform="translate(51.087157,24.072616)"/><path d="M -51.527833,-0.07261553 V -24.513293 h 48.8813552 v 24.44067747 z" style="mix-blend-mode:normal" transform="translate(51.087157,24.072616)"/><path d="M -51.527833,-0.07261553 V -24.513293 h 48.8813552 v 24.44067747 z" style="mix-blend-mode:normal" transform="translate(51.087157,24.072616)"/><path d="M -51.527833,-0.07261553 V -24.513293 h 48.8813552 v 24.44067747 z" style="mix-blend-mode:normal" transform="translate(51.087157,24.072616)"/><path d="M -51.527833,-0.07261553 V -24.513293 h 48.8813552 v 24.44067747 z" style="mix-blend-mode:normal" transform="translate(51.087157,24.072616)"/><path d="M -5.9792975,9.9258435 -17.088696,21.035242 v -8.887519 c 0,-1.11094 1.11094,-2.2218795 2.22188,-2.2218795 z" style="mix-blend-mode:normal" fill="#ffd730" transform="translate(51.087157,24.072616)"/></g></svg>