<svg xmlns="http://www.w3.org/2000/svg" width="48" height="48" enable-background="new"><defs><linearGradient x1="15.383" y1="11.69" x2="50.295" y2="53.988" gradientUnits="userSpaceOnUse" id="b"><stop offset="0" stop-opacity=".29"/><stop offset="1" stop-opacity="0"/></linearGradient><filter id="a" x="-.036" width="1.072" y="-.036" height="1.072" color-interpolation-filters="sRGB"><feGaussianBlur stdDeviation=".63"/></filter></defs><g fill="none" stroke-width="none" stroke-miterlimit="10" font-family="none" font-weight="none" font-size="none" text-anchor="none" style="mix-blend-mode:normal"><rect style="mix-blend-mode:normal" width="42" height="42" x="3" y="4" ry="1.728" fill="#000" fill-opacity=".392" filter="url(#a)"/><rect width="42" height="42" x="3" y="3" ry="1.728" fill="#f5b912"/><path d="M20.67 35.95v.002-.003c-.225-.23-.363-.54-.363-.87v-1.24h1.954l-2.82-2.824c-.22-.224-.36-.53-.36-.87l3.69 3.693-3.69-3.694v-2.59l-1.17-1.17c-1.553-1.554-2.52-3.703-2.52-6.083 0-4.758 3.86-8.617 8.617-8.617 2.38 0 4.534.96 6.094 2.52L45 29.12V43c0 1.105-.895 2-2 2H29.72z" fill="url(#b)"/><path d="M20.307 35.08c0 .676.554 1.23 1.23 1.23h4.925c.677 0 1.23-.554 1.23-1.23v-1.232h-7.385zM24 11.69c-4.758 0-8.617 3.86-8.617 8.617 0 2.93 1.465 5.51 3.693 7.066v2.782c0 .677.554 1.23 1.23 1.23h7.387c.677 0 1.23-.553 1.23-1.23v-2.782c2.23-1.557 3.694-4.136 3.694-7.066 0-4.758-3.86-8.617-8.617-8.617zm3.515 13.664l-1.053.733v2.837h-4.924v-2.83l-1.053-.734c-1.655-1.157-2.64-3.04-2.64-5.047 0-3.39 2.763-6.155 6.155-6.155 3.392 0 6.155 2.764 6.155 6.155 0 2-.985 3.884-2.64 5.04z" fill="#fff"/></g></svg>