<?xml version="1.0" standalone="no"?>
<!DOCTYPE svg PUBLIC "-//W3C//DTD SVG 20010904//EN"
 "http://www.w3.org/TR/2001/REC-SVG-20010904/DTD/svg10.dtd">
<svg version="1.0" xmlns="http://www.w3.org/2000/svg"
 width="260.000000pt" height="260.000000pt" viewBox="0 0 260.000000 260.000000"
 preserveAspectRatio="xMidYMid meet">
<metadata>
Created by potrace 1.11, written by Peter Selinger 2001-2013
</metadata>
<g transform="translate(0.000000,260.000000) scale(0.100000,-0.100000)"
fill="#000000" stroke="none">
<path d="M310 2040 l-63 -72 177 -177 177 -177 -67 -54 c-111 -90 -225 -234
-294 -370 -87 -173 -119 -305 -127 -533 l-6 -167 1193 0 1193 0 -6 167 c-8
228 -40 360 -127 533 -69 136 -183 280 -294 370 l-67 54 177 177 177 177 -63
72 -64 71 -197 -197 -198 -197 -58 25 c-171 77 -307 102 -513 95 -172 -5 -246
-20 -402 -83 l-91 -36 -196 196 -197 197 -64 -71z m557 -891 c146 -70 110
-294 -52 -325 -81 -15 -172 46 -193 127 -21 82 11 154 84 196 49 28 105 29
161 2z m1027 -2 c48 -27 75 -62 86 -113 34 -150 -134 -267 -260 -181 -52 35
-73 70 -78 131 -4 46 0 62 22 99 47 81 151 110 230 64z"/>
</g>
</svg>
