<?xml version="1.0" encoding="UTF-8" standalone="no"?>
<!-- Created with Inkscape (http://www.inkscape.org/) -->

<svg
   xmlns:dc="http://purl.org/dc/elements/1.1/"
   xmlns:cc="http://creativecommons.org/ns#"
   xmlns:rdf="http://www.w3.org/1999/02/22-rdf-syntax-ns#"
   xmlns:svg="http://www.w3.org/2000/svg"
   xmlns="http://www.w3.org/2000/svg"
   xmlns:sodipodi="http://sodipodi.sourceforge.net/DTD/sodipodi-0.dtd"
   xmlns:inkscape="http://www.inkscape.org/namespaces/inkscape"
   width="656.97223"
   height="554.60175"
   viewBox="0 0 656.97223 554.60175"
   id="svg2"
   version="1.1"
   inkscape:version="0.91 r"
   sodipodi:docname="example.svg">
  <defs
     id="defs4" />
  <sodipodi:namedview
     id="base"
     pagecolor="#ffffff"
     bordercolor="#666666"
     borderopacity="1.0"
     inkscape:pageopacity="0.0"
     inkscape:pageshadow="2"
     inkscape:zoom="2.56"
     inkscape:cx="142.73583"
     inkscape:cy="430.01551"
     inkscape:document-units="px"
     inkscape:current-layer="layer1"
     showgrid="false"
     inkscape:window-width="1916"
     inkscape:window-height="1143"
     inkscape:window-x="1680"
     inkscape:window-y="36"
     inkscape:window-maximized="0"
     units="px"
     fit-margin-top="60"
     fit-margin-left="60"
     fit-margin-right="60"
     fit-margin-bottom="60" />
  <metadata
     id="metadata7">
    <rdf:RDF>
      <cc:Work
         rdf:about="">
        <dc:format>image/svg+xml</dc:format>
        <dc:type
           rdf:resource="http://purl.org/dc/dcmitype/StillImage" />
        <dc:title></dc:title>
      </cc:Work>
    </rdf:RDF>
  </metadata>
  <g
     inkscape:label="Layer 1"
     inkscape:groupmode="layer"
     id="layer1"
     transform="translate(180.931,-44.192734)">
    <path
       style="fill:none;fill-opacity:1;fill-rule:evenodd;stroke:#000000;stroke-width:13.87370205;stroke-linecap:butt;stroke-linejoin:miter;stroke-miterlimit:4;stroke-dasharray:none;stroke-opacity:1"
       d="m 39.059791,143.68226 c -18.572182,1.516 -38.49332768,0.67772 -58.093768,-1.32234 -35.718335,-3.64475 -70.371652,-11.14761 -93.855643,-15.29188 -2.21702,26.78966 -1.2676,48.84884 4.22362,71.7682 6.1442,-7.97461 13.475523,-17.13356 22.569273,-27.86949 0.815773,0.24972 22.426377,4.96169 36.330601,7.09871 -19.906913,7.5829 -38.464839,14.2876 -52.370914,42.10021 -0.0601,0.0971 -0.0925,0.16186 -0.14336,0.25897 6.490117,18.41226 15.930246,38.33628 29.016385,62.32669 1.33835,-33.47863 -2.743294,-46.3895 23.037745,-45.94647 36.380547,0.62524 106.856642,37.16303 107.968388,77.64186 0.975321,35.48662 -63.7450373,55.52302 -83.762015,48.51403 -8.999871,-3.15118 -29.299409,-21.60598 -29.299409,-21.60598 3.545656,54.34838 27.402411,104.30111 61.2181734,129.66316 -0.5332126,-11.23215 -0.5392246,-23.53396 5.3469246,-33.69645 0,0 13.375174,21.39787 34.23521,23.0026 -11.232149,-19.25531 -17.381436,-29.43352 3.205288,-40.64625 21.534298,-11.72929 94.13584,-60.97954 112.32103,60.96937 0,0 22.99751,-14.43466 31.55527,-36.3639 15.51127,29.95194 28.34953,79.15086 28.34953,79.15086 0,0 33.70292,-43.32202 23.54043,-102.69175 0,0 37.44235,24.06902 84.50981,74.88099 -1.0692,-47.60298 -3.21084,-70.59726 -17.11691,-98.40987 44.06796,-3.32506 78.62458,-41.72284 78.62458,-41.72284 0,0 -45.46828,-3.74035 -47.60807,-40.64579 29.9524,-39.57982 52.95546,-39.04337 52.95546,-39.04337 0,0 -30.48931,-24.61195 -77.02171,-25.68208 14.83608,-11.57298 22.6516,-18.53757 30.91385,-30.37092 -14.29223,1.23199 -56.05115,18.07605 -88.67747,-5.99297 27.27801,-34.23105 67.92102,-36.3787 88.78013,-81.84236 -56.69534,-1.60426 -106.96393,1.61305 -157.7759,18.19397 C 139.08456,144.2238 49.5164,113.03895 49.5164,113.03895 Z"
       id="path4572-7"
       inkscape:connector-curvature="0"
       sodipodi:nodetypes="cscccccccscsccccccccccccccccccccc" />
    <path
       sodipodi:nodetypes="cccc"
       inkscape:connector-curvature="0"
       id="path4861"
       d="m 69.012189,145.28514 c 13.906074,2.67438 58.301461,36.91375 58.301461,36.91375 -18.29479,3.11928 -58.301461,1.60288 -58.301461,1.60288 z"
       style="fill:none;fill-opacity:1;fill-rule:evenodd;stroke:#000000;stroke-width:13.87370205;stroke-linecap:butt;stroke-linejoin:miter;stroke-miterlimit:4;stroke-dasharray:none;stroke-opacity:1" />
  </g>
</svg>
