<svg xmlns="http://www.w3.org/2000/svg" width="60" height="60" viewBox="0 0 60.000003 60"><g transform="translate(0,-992.3622) matrix(1.5693487,0,0,1.5693487,-22.681992,-685.25298)"><rect ry="2.441" y="1071.649" x="14.453" height="32.91" width="38.232" fill="#e0e0e0" fill-rule="evenodd"/><path d="M16.895 1071.65c-1.353 0-2.442 1.088-2.442 2.44v4.2h38.233v-4.2c0-1.352-1.09-2.44-2.442-2.44h-33.35z" fill="#2e4d5b" fill-rule="evenodd"/><circle r="1.525" cy="1074.97" cx="41.055" fill="#efcd59" fill-rule="evenodd"/><circle r="1.525" cy="1074.97" cx="45.18" fill="#14aeb1" fill-rule="evenodd"/><circle r="1.525" cy="1074.97" cx="49.304" fill="#df5758" fill-rule="evenodd"/><path d="M23.708 1091.314q-1.627-.62-2.204-1.3-.576-.685-.576-1.838 0-1.48.948-2.328.95-.846 2.605-.846.76 0 1.51.175.75.168 1.49.503v2.102q-.69-.49-1.41-.744-.71-.256-1.41-.256-.78 0-1.197.314-.416.314-.416.898 0 .452.3.75.306.293 1.27.65l.926.35q1.31.482 1.932 1.278.62.795.62 2.006 0 1.65-.98 2.467-.97.81-2.94.81-.81 0-1.63-.197-.81-.19-1.57-.57v-2.225q.864.613 1.666.912.81.3 1.598.3.795 0 1.233-.358.438-.365.438-1.015 0-.49-.292-.853-.292-.38-.846-.59zm9.762 2.984l1.92-9.1h2.167l-2.59 10.895h-2.985l-2.59-10.894h2.167zm10.858-.175v-2.08h-1.474v-1.81h3.357v4.992q-.62.532-1.37.81-.74.27-1.6.27-2.11 0-3.26-1.467-1.15-1.474-1.15-4.18 0-2.752 1.16-4.204 1.168-1.452 3.364-1.452.657 0 1.29.19.636.182 1.19.532v2.386q-.452-.583-1.043-.875-.582-.3-1.282-.3-1.226 0-1.832.927-.604.92-.604 2.795 0 1.817.584 2.765.585.95 1.7.95.337 0 .585-.06.248-.065.4-.19z" style="-inkscape-font-specification:'monospace Bold'" font-size="12.5" font-family="monospace" letter-spacing="0" word-spacing="0" fill="#2e4d5b" fill-opacity=".885" font-weight="bold"/></g></svg>