<?xml version="1.0" encoding="UTF-8" standalone="no"?>
<!-- Created with Inkscape (http://www.inkscape.org/) -->

<svg
   xmlns:dc="http://purl.org/dc/elements/1.1/"
   xmlns:cc="http://creativecommons.org/ns#"
   xmlns:rdf="http://www.w3.org/1999/02/22-rdf-syntax-ns#"
   xmlns:svg="http://www.w3.org/2000/svg"
   xmlns="http://www.w3.org/2000/svg"
   xmlns:xlink="http://www.w3.org/1999/xlink"
   xmlns:sodipodi="http://sodipodi.sourceforge.net/DTD/sodipodi-0.dtd"
   xmlns:inkscape="http://www.inkscape.org/namespaces/inkscape"
   width="60"
   height="60"
   viewBox="0 0 60.000003 60"
   id="svg2"
   version="1.1"
   inkscape:version="0.92.0 unknown"
   sodipodi:docname="feature_svg.svg">
  <defs
     id="defs4">
    <clipPath
       id="clipPath4209"
       clipPathUnits="userSpaceOnUse">
      <path
         inkscape:connector-curvature="0"
         id="path4211"
         d="m 0,0 0,7184 10214,0 L 10214,0 0,0 Z" />
    </clipPath>
    <clipPath
       id="clipPath4215"
       clipPathUnits="userSpaceOnUse">
      <path
         inkscape:connector-curvature="0"
         id="path4217"
         d="m 4052.72,2267.19 -0.47,2870 2760,-1440 -2759.53,-1430 z m 6059.78,3367.19 c 0,0 -99.8,703.89 -406.08,1013.86 -388.42,406.83 -823.8,408.85 -1023.46,432.67 -1429.37,103.32 -3573.5,103.32 -3573.5,103.32 l -4.44,0 c 0,0 -2144.08,0 -3573.5,-103.32 C 1331.85,7057.09 896.625,7055.07 508.066,6648.24 201.813,6338.27 102.152,5634.38 102.152,5634.38 102.152,5634.38 0,4807.78 0,3981.19 l 0,-774.93 c 0,-826.58 102.152,-1653.17 102.152,-1653.17 0,0 99.661,-703.899 405.914,-1013.871 C 896.625,132.379 1407.03,145.25 1634.36,102.609 2451.53,24.25 5107.25,0 5107.25,0 c 0,0 2146.34,3.23047 3575.71,106.551 199.66,23.82 635.04,25.828 1023.46,432.668 306.28,309.972 406.08,1013.871 406.08,1013.871 0,0 102,826.59 102,1653.17 l 0,774.93 c 0,826.59 -102,1653.19 -102,1653.19 z" />
    </clipPath>
    <linearGradient
       id="linearGradient4219"
       spreadMethod="pad"
       gradientTransform="matrix(-3.14e-4,-7184.23,-7184.23,3.14e-4,5107.24,7184.23)"
       gradientUnits="userSpaceOnUse"
       y2="0"
       x2="1"
       y1="0"
       x1="0">
      <stop
         id="stop4221"
         offset="0"
         style="stop-opacity:1;stop-color:#e62426" />
      <stop
         id="stop4223"
         offset="1"
         style="stop-opacity:1;stop-color:#c01e25" />
    </linearGradient>
    <clipPath
       id="clipPath4209-3"
       clipPathUnits="userSpaceOnUse">
      <path
         inkscape:connector-curvature="0"
         id="path4211-6"
         d="m 0,0 0,7184 10214,0 L 10214,0 0,0 Z" />
    </clipPath>
    <clipPath
       id="clipPath4215-7"
       clipPathUnits="userSpaceOnUse">
      <path
         inkscape:connector-curvature="0"
         id="path4217-5"
         d="m 4052.72,2267.19 -0.47,2870 2760,-1440 -2759.53,-1430 z m 6059.78,3367.19 c 0,0 -99.8,703.89 -406.08,1013.86 -388.42,406.83 -823.8,408.85 -1023.46,432.67 -1429.37,103.32 -3573.5,103.32 -3573.5,103.32 l -4.44,0 c 0,0 -2144.08,0 -3573.5,-103.32 C 1331.85,7057.09 896.625,7055.07 508.066,6648.24 201.813,6338.27 102.152,5634.38 102.152,5634.38 102.152,5634.38 0,4807.78 0,3981.19 l 0,-774.93 c 0,-826.58 102.152,-1653.17 102.152,-1653.17 0,0 99.661,-703.899 405.914,-1013.871 C 896.625,132.379 1407.03,145.25 1634.36,102.609 2451.53,24.25 5107.25,0 5107.25,0 c 0,0 2146.34,3.23047 3575.71,106.551 199.66,23.82 635.04,25.828 1023.46,432.668 306.28,309.972 406.08,1013.871 406.08,1013.871 0,0 102,826.59 102,1653.17 l 0,774.93 c 0,826.59 -102,1653.19 -102,1653.19 z" />
    </clipPath>
  </defs>
  <sodipodi:namedview
     id="base"
     pagecolor="#ffffff"
     bordercolor="#666666"
     borderopacity="1.0"
     inkscape:pageopacity="0.0"
     inkscape:pageshadow="2"
     inkscape:zoom="2.5600001"
     inkscape:cx="92.836702"
     inkscape:cy="18.650238"
     inkscape:document-units="px"
     inkscape:current-layer="flowRoot7551-3"
     showgrid="false"
     inkscape:window-width="1916"
     inkscape:window-height="1143"
     inkscape:window-x="0"
     inkscape:window-y="36"
     inkscape:window-maximized="0"
     units="px"
     showguides="false" />
  <metadata
     id="metadata7">
    <rdf:RDF>
      <cc:Work
         rdf:about="">
        <dc:format>image/svg+xml</dc:format>
        <dc:type
           rdf:resource="http://purl.org/dc/dcmitype/StillImage" />
        <dc:title></dc:title>
      </cc:Work>
    </rdf:RDF>
  </metadata>
  <g
     inkscape:label="Layer 1"
     inkscape:groupmode="layer"
     id="layer1"
     transform="translate(0,-992.3622)">
    <g
       id="g4397"
       transform="matrix(1.5693487,0,0,1.5693487,-22.681992,-685.25298)">
      <rect
         ry="2.4414065"
         y="1071.6493"
         x="14.453125"
         height="32.910156"
         width="38.232422"
         id="rect4238"
         style="opacity:1;fill:#e0e0e0;fill-opacity:1;fill-rule:evenodd;stroke:none;stroke-width:10;stroke-linecap:round;stroke-linejoin:round;stroke-miterlimit:4;stroke-dasharray:none;stroke-dashoffset:0;stroke-opacity:0.49025975" />
      <path
         id="rect4238-3"
         transform="translate(0,992.3622)"
         d="m 16.894531,79.287109 c -1.352539,0 -2.441406,1.088867 -2.441406,2.441407 l 0,4.199218 38.232422,0 0,-4.199218 c 0,-1.35254 -1.088867,-2.441407 -2.441406,-2.441407 l -33.34961,0 z"
         style="opacity:1;fill:#2e4d5b;fill-opacity:1;fill-rule:evenodd;stroke:none;stroke-width:10;stroke-linecap:round;stroke-linejoin:round;stroke-miterlimit:4;stroke-dasharray:none;stroke-dashoffset:0;stroke-opacity:0.49025975"
         inkscape:connector-curvature="0" />
      <circle
         r="1.5254579"
         cy="1074.9696"
         cx="41.055462"
         id="path4260"
         style="opacity:1;fill:#efcd59;fill-opacity:1;fill-rule:evenodd;stroke:none;stroke-width:10;stroke-linecap:round;stroke-linejoin:round;stroke-miterlimit:4;stroke-dasharray:none;stroke-dashoffset:0;stroke-opacity:0.49025975" />
      <circle
         r="1.525458"
         cy="1074.9696"
         cx="45.179832"
         id="path4260-6"
         style="opacity:1;fill:#14aeb1;fill-opacity:1;fill-rule:evenodd;stroke:none;stroke-width:10;stroke-linecap:round;stroke-linejoin:round;stroke-miterlimit:4;stroke-dasharray:none;stroke-dashoffset:0;stroke-opacity:0.49025975" />
      <circle
         r="1.525458"
         cy="1074.9696"
         cx="49.304203"
         id="path4260-7"
         style="opacity:1;fill:#df5758;fill-opacity:1;fill-rule:evenodd;stroke:none;stroke-width:10;stroke-linecap:round;stroke-linejoin:round;stroke-miterlimit:4;stroke-dasharray:none;stroke-dashoffset:0;stroke-opacity:0.49025975" />
      <g
         aria-label="SVG"
         transform="matrix(1.1955004,0,0,1.1955004,-16.336239,942.13605)"
         style="font-style:normal;font-weight:normal;font-size:12.5px;line-height:25px;font-family:Sans;letter-spacing:0px;word-spacing:0px;fill:#2e4d5b;fill-opacity:0.88529412;stroke:none;stroke-width:1px;stroke-linecap:butt;stroke-linejoin:miter;stroke-opacity:1"
         id="flowRoot7551-3">
        <path
           d="m 33.495605,124.78247 q -1.361084,-0.5188 -1.843261,-1.08643 -0.482178,-0.57373 -0.482178,-1.53808 0,-1.23901 0.793457,-1.94702 0.793457,-0.70801 2.178955,-0.70801 0.628662,0 1.257324,0.14648 0.628662,0.14038 1.245118,0.42115 v 1.75781 q -0.579834,-0.40894 -1.177979,-0.62256 -0.598145,-0.21362 -1.184082,-0.21362 -0.653076,0 -1.000977,0.26245 -0.3479,0.26245 -0.3479,0.75073 0,0.37842 0.250244,0.62866 0.256348,0.24414 1.062012,0.54322 l 0.775146,0.29296 q 1.098633,0.40284 1.617432,1.06812 0.518799,0.66528 0.518799,1.67847 0,1.37939 -0.817871,2.06299 -0.811768,0.67749 -2.459717,0.67749 -0.67749,0 -1.361084,-0.1648 -0.67749,-0.15869 -1.312256,-0.47607 v -1.86158 q 0.720215,0.5127 1.391602,0.76294 0.67749,0.25025 1.33667,0.25025 0.665283,0 1.031494,-0.29907 0.366211,-0.30518 0.366211,-0.84839 0,-0.40894 -0.244141,-0.71411 -0.244141,-0.31128 -0.708008,-0.48829 z"
           style="font-style:normal;font-variant:normal;font-weight:bold;font-stretch:normal;font-family:monospace;-inkscape-font-specification:'monospace Bold'"
           id="path7462" />
        <path
           d="m 41.662109,127.27881 1.605225,-7.61109 h 1.812744 l -2.166748,9.11255 h -2.496338 l -2.166748,-9.11255 h 1.812744 z"
           style="font-style:normal;font-variant:normal;font-weight:bold;font-stretch:normal;font-family:monospace;-inkscape-font-specification:'monospace Bold'"
           id="path7464" />
        <path
           d="m 50.744141,127.13232 v -1.7395 H 49.51123 v -1.51367 h 2.807618 v 4.17481 q -0.518799,0.44555 -1.147461,0.67749 -0.622559,0.22583 -1.33667,0.22583 -1.77002,0 -2.734375,-1.22681 -0.964356,-1.23291 -0.964356,-3.49732 0,-2.30102 0.970459,-3.51562 0.976563,-1.2146 2.813721,-1.2146 0.549316,0 1.080322,0.15869 0.531006,0.15259 0.994873,0.44556 v 1.99585 q -0.378418,-0.48828 -0.872802,-0.73242 -0.488282,-0.25025 -1.074219,-0.25025 -1.025391,0 -1.531983,0.77515 -0.506591,0.76904 -0.506591,2.33764 0,1.51978 0.488281,2.31324 0.488281,0.79345 1.422119,0.79345 0.280762,0 0.488281,-0.0488 0.20752,-0.0549 0.335694,-0.1587 z"
           style="font-style:normal;font-variant:normal;font-weight:bold;font-stretch:normal;font-family:monospace;-inkscape-font-specification:'monospace Bold'"
           id="path7466" />
      </g>
    </g>
  </g>
</svg>
