<svg xmlns="http://www.w3.org/2000/svg" width="60" height="60" viewBox="0 0 60.000003 60"><g transform="translate(0,-992.3622)"><circle cx="257.813" cy="-855.45" r="235.938" fill="#fff" fill-rule="evenodd"/><path d="M41.125 1015.812c.085-.677.148-1.353.148-2.072 0-.72-.063-1.396-.148-2.073l4.463-3.49c.402-.317.507-.888.254-1.353l-4.23-7.317c-.254-.466-.825-.635-1.29-.466l-5.266 2.12c-1.1-.84-2.284-1.54-3.574-2.07l-.804-5.6c-.063-.5-.507-.89-1.036-.89h-8.46c-.528 0-.972.39-1.036.89l-.803 5.61c-1.29.53-2.475 1.25-3.575 2.07l-5.266-2.11c-.486-.19-1.036 0-1.29.47l-4.23 7.32c-.274.47-.147 1.04.254 1.36l4.463 3.49c-.09.68-.15 1.38-.15 2.07 0 .7.06 1.4.15 2.08l-4.47 3.49c-.4.32-.51.89-.26 1.36l4.23 7.3c.25.465.82.634 1.29.465l5.26-2.114c1.1.84 2.28 1.54 3.57 2.07l.8 5.6c.065.51.51.89 1.04.89h8.46c.53 0 .973-.38 1.04-.89l.8-5.6c1.29-.53 2.475-1.25 3.575-2.07l5.267 2.11c.49.19 1.04 0 1.29-.46l4.23-7.32c.255-.47.15-1.04-.25-1.36zm-15.713 5.33c-4.082 0-7.402-3.32-7.402-7.402 0-4.082 3.32-7.402 7.402-7.402 4.082 0 7.402 3.32 7.402 7.402 0 4.08-3.32 7.402-7.402 7.402z" fill="#688491"/><path d="M37.656 1013.74a12.25 12.25 0 0 1-12.25 12.25 12.25 12.25 0 0 1-12.248-12.25 12.25 12.25 0 0 1 12.25-12.25 12.25 12.25 0 0 1 12.248 12.25z" fill="#d2dade"/><path d="M33.83 1013.74a8.42 8.42 0 0 1-8.423 8.42 8.42 8.42 0 0 1-8.42-8.42 8.42 8.42 0 0 1 8.42-8.422 8.42 8.42 0 0 1 8.422 8.422z" fill="#546a74"/><path d="M30.537 1013.74a5.13 5.13 0 0 1-5.13 5.13 5.13 5.13 0 0 1-5.13-5.13 5.13 5.13 0 0 1 5.13-5.13 5.13 5.13 0 0 1 5.13 5.13z" fill="#d2dade"/><path d="M50.574 1043.56c.19-.37.368-.745.518-1.157.15-.412.255-.813.348-1.22l3.288-1.066c.296-.098.476-.403.428-.723l-.894-5.078c-.05-.32-.34-.536-.643-.537l-3.46.11c-.46-.72-.99-1.37-1.62-1.94l.71-3.38c.07-.31-.11-.62-.41-.73l-4.85-1.77c-.31-.11-.64.01-.78.29l-1.63 3.04c-.85.03-1.68.2-2.48.44l-2.58-2.31c-.24-.21-.6-.22-.84-.01l-3.96 3.31c-.26.21-.3.56-.14.82l1.82 2.93c-.19.37-.37.76-.52 1.16-.15.4-.26.81-.35 1.22l-3.29 1.06c-.3.1-.48.4-.43.72l.89 5.072c.04.32.34.54.64.54l3.46-.11c.45.713.98 1.36 1.61 1.933l-.71 3.38c-.07.307.1.62.4.73l4.85 1.77c.3.11.635-.01.78-.29l1.63-3.04c.85-.035 1.68-.2 2.482-.44l2.57 2.31c.24.21.594.22.837 0l3.96-3.31c.246-.21.305-.56.14-.83zm-10.12-.23c-2.34-.854-3.55-3.45-2.696-5.79.853-2.34 3.45-3.55 5.79-2.696 2.34.854 3.548 3.45 2.695 5.79-.853 2.34-3.45 3.55-5.79 2.696z" fill="#688491"/><path d="M49.02 1041.647a7.473 7.473 0 0 1-9.583 4.46 7.473 7.473 0 0 1-4.46-9.582 7.473 7.473 0 0 1 9.582-4.46 7.473 7.473 0 0 1 4.46 9.582z" fill="#d2dade"/><path d="M46.825 1040.847a5.138 5.138 0 0 1-6.588 3.066 5.138 5.138 0 0 1-3.066-6.588 5.138 5.138 0 0 1 6.59-3.066 5.138 5.138 0 0 1 3.07 6.58z" fill="#546a74"/><path d="M44.938 1040.158a3.13 3.13 0 0 1-4.013 1.868 3.13 3.13 0 0 1-1.867-4.013 3.13 3.13 0 0 1 4.012-1.867 3.13 3.13 0 0 1 1.868 4.012z" fill="#d2dade"/></g></svg>