<?xml version="1.0" encoding="UTF-8" standalone="no"?>
<svg
   xmlns:dc="http://purl.org/dc/elements/1.1/"
   xmlns:cc="http://creativecommons.org/ns#"
   xmlns:rdf="http://www.w3.org/1999/02/22-rdf-syntax-ns#"
   xmlns:svg="http://www.w3.org/2000/svg"
   xmlns="http://www.w3.org/2000/svg"
   xmlns:sodipodi="http://sodipodi.sourceforge.net/DTD/sodipodi-0.dtd"
   xmlns:inkscape="http://www.inkscape.org/namespaces/inkscape"
   height="90"
   viewBox="0 0 750 90"
   width="750"
   version="1.1"
   id="svg6"
   sodipodi:docname="logo.svg"
   inkscape:version="0.92.0 unknown"
   inkscape:export-filename="/home/maddoc/android/MaterialAndroidIcons/app/assets/img/logo-paypal.png"
   inkscape:export-xdpi="96"
   inkscape:export-ydpi="96"
   style="fill:#000000">
  <metadata
     id="metadata12">
    <rdf:RDF>
      <cc:Work
         rdf:about="">
        <dc:format>image/svg+xml</dc:format>
        <dc:type
           rdf:resource="http://purl.org/dc/dcmitype/StillImage" />
        <dc:title></dc:title>
      </cc:Work>
    </rdf:RDF>
  </metadata>
  <defs
     id="defs10" />
  <sodipodi:namedview
     pagecolor="#ffffff"
     bordercolor="#666666"
     borderopacity="1"
     objecttolerance="10"
     gridtolerance="10"
     guidetolerance="10"
     inkscape:pageopacity="0"
     inkscape:pageshadow="2"
     inkscape:window-width="1916"
     inkscape:window-height="1143"
     id="namedview8"
     showgrid="false"
     inkscape:zoom="1.7383042"
     inkscape:cx="401.61453"
     inkscape:cy="-68.934595"
     inkscape:window-x="0"
     inkscape:window-y="36"
     inkscape:window-maximized="0"
     inkscape:current-layer="svg6" />
  <rect
     style="opacity:1;fill:#ffffff;fill-opacity:1;fill-rule:nonzero;stroke:none;stroke-width:1;stroke-linecap:round;stroke-linejoin:round;stroke-miterlimit:4;stroke-dasharray:none;stroke-dashoffset:0;stroke-opacity:1"
     id="rect3602"
     width="16.067797"
     height="5.4915257"
     x="3.7627118"
     y="78.101692" />
  <path
     d="M 0,66 H 24 V 90 H 0 Z"
     id="path2"
     inkscape:connector-curvature="0"
     style="fill:none" />
  <path
     d="m 402.31296,32.735693 13.92164,-13.92165 -5.43608,-5.50237 -15.24752,15.313814 c -6.23161,-3.115792 -13.12612,-4.972015 -20.55097,-4.972015 -7.42493,0 -14.31943,1.856223 -20.48474,4.972015 l -15.3138,-15.313814 -5.4361,5.50237 13.92163,13.92165 c -11.53503,8.419287 -19.0925,21.943171 -19.0925,37.323281 v 6.629353 h 92.81095 v -6.629353 c 0,-15.380109 -7.55741,-28.903994 -19.09251,-37.323281 z M 355.11195,63.42961 c -3.64616,0 -6.62936,-2.9832 -6.62936,-6.629345 0,-3.646156 2.9832,-6.629365 6.62936,-6.629365 3.64612,0 6.62937,2.983209 6.62937,6.629365 0,3.646145 -2.98325,6.629345 -6.62937,6.629345 z m 39.77615,0 c -3.64616,0 -6.62937,-2.9832 -6.62937,-6.629345 0,-3.646156 2.98321,-6.629365 6.62937,-6.629365 3.6461,0 6.62935,2.983209 6.62935,6.629365 0,3.646145 -2.98325,6.629345 -6.62935,6.629345 z"
     id="path4"
     inkscape:connector-curvature="0"
     sodipodi:nodetypes="ccccsccccsccscssssssssss"
     style="fill:#2196f3;fill-opacity:1;stroke-width:6.62935734" />
</svg>
